<svg xmlns="http://www.w3.org/2000/svg" viewBox="0 0 208 208" width="208" height="208" fill="#000000"><title>Kleist Labs symbol</title><path fill-rule="evenodd" d="M42 34 H166 A8 8 0 0 1 174 42 V166 A8 8 0 0 1 166 174 H42 A8 8 0 0 1 34 166 V42 A8 8 0 0 1 42 34 Z M65 0 H79 V24 H65 Z M97 0 H111 V24 H97 Z M129 0 H143 V24 H129 Z M65 184 H79 V208 H65 Z M97 184 H111 V208 H97 Z M129 184 H143 V208 H129 Z M0 65 H24 V79 H0 Z M0 97 H24 V111 H0 Z M0 129 H24 V143 H0 Z M184 65 H208 V79 H184 Z M184 97 H208 V111 H184 Z M184 129 H208 V143 H184 Z M50 58 A8 8 0 1 0 66 58 A8 8 0 1 0 50 58 Z M67 60 H91 V148 H67 Z M91 110 L141 60 L107 60 L91 76 Z M91 98 L141 148 L107 148 L91 132 Z"></path></svg>