%TF.GenerationSoftware,KiCad,Pcbnew,10.0.4*%
%TF.CreationDate,2026-07-13T13:08:03+02:00*%
%TF.ProjectId,ValveController,56616c76-6543-46f6-9e74-726f6c6c6572,rev?*%
%TF.SameCoordinates,Original*%
%TF.FileFunction,Paste,Top*%
%TF.FilePolarity,Positive*%
%FSLAX46Y46*%
G04 Gerber Fmt 4.6, Leading zero omitted, Abs format (unit mm)*
G04 Created by KiCad (PCBNEW 10.0.4) date 2026-07-13 13:08:03*
%MOMM*%
%LPD*%
G01*
G04 APERTURE LIST*
G04 Aperture macros list*
%AMRoundRect*
0 Rectangle with rounded corners*
0 $1 Rounding radius*
0 $2 $3 $4 $5 $6 $7 $8 $9 X,Y pos of 4 corners*
0 Add a 4 corners polygon primitive as box body*
4,1,4,$2,$3,$4,$5,$6,$7,$8,$9,$2,$3,0*
0 Add four circle primitives for the rounded corners*
1,1,$1+$1,$2,$3*
1,1,$1+$1,$4,$5*
1,1,$1+$1,$6,$7*
1,1,$1+$1,$8,$9*
0 Add four rect primitives between the rounded corners*
20,1,$1+$1,$2,$3,$4,$5,0*
20,1,$1+$1,$4,$5,$6,$7,0*
20,1,$1+$1,$6,$7,$8,$9,0*
20,1,$1+$1,$8,$9,$2,$3,0*%
G04 Aperture macros list end*
%ADD10RoundRect,0.250000X-0.312500X-0.625000X0.312500X-0.625000X0.312500X0.625000X-0.312500X0.625000X0*%
%ADD11R,1.295400X1.651000*%
%ADD12RoundRect,0.250000X-0.475000X0.250000X-0.475000X-0.250000X0.475000X-0.250000X0.475000X0.250000X0*%
%ADD13RoundRect,0.250000X-1.100000X0.325000X-1.100000X-0.325000X1.100000X-0.325000X1.100000X0.325000X0*%
%ADD14RoundRect,0.250000X-2.550000X-3.090000X2.550000X-3.090000X2.550000X3.090000X-2.550000X3.090000X0*%
%ADD15RoundRect,0.250000X0.312500X0.625000X-0.312500X0.625000X-0.312500X-0.625000X0.312500X-0.625000X0*%
%ADD16RoundRect,0.135000X0.135000X0.185000X-0.135000X0.185000X-0.135000X-0.185000X0.135000X-0.185000X0*%
%ADD17RoundRect,0.135000X0.185000X-0.135000X0.185000X0.135000X-0.185000X0.135000X-0.185000X-0.135000X0*%
%ADD18R,1.498600X0.889000*%
%ADD19R,0.812800X0.812800*%
%ADD20RoundRect,0.135000X-0.135000X-0.185000X0.135000X-0.185000X0.135000X0.185000X-0.135000X0.185000X0*%
%ADD21RoundRect,0.172500X-0.262500X-0.172500X0.262500X-0.172500X0.262500X0.172500X-0.262500X0.172500X0*%
%ADD22RoundRect,0.093750X-0.093750X-0.106250X0.093750X-0.106250X0.093750X0.106250X-0.093750X0.106250X0*%
%ADD23R,1.700000X2.700000*%
%ADD24RoundRect,0.140000X-0.170000X0.140000X-0.170000X-0.140000X0.170000X-0.140000X0.170000X0.140000X0*%
%ADD25RoundRect,0.375000X-0.625000X-0.375000X0.625000X-0.375000X0.625000X0.375000X-0.625000X0.375000X0*%
%ADD26RoundRect,0.500000X-0.500000X-1.400000X0.500000X-1.400000X0.500000X1.400000X-0.500000X1.400000X0*%
%ADD27R,0.850000X0.300000*%
%ADD28C,1.100000*%
%ADD29RoundRect,0.250000X0.250000X0.475000X-0.250000X0.475000X-0.250000X-0.475000X0.250000X-0.475000X0*%
%ADD30RoundRect,0.135000X-0.185000X0.135000X-0.185000X-0.135000X0.185000X-0.135000X0.185000X0.135000X0*%
%ADD31RoundRect,0.140000X0.170000X-0.140000X0.170000X0.140000X-0.170000X0.140000X-0.170000X-0.140000X0*%
%ADD32RoundRect,0.225000X0.375000X-0.225000X0.375000X0.225000X-0.375000X0.225000X-0.375000X-0.225000X0*%
%ADD33RoundRect,0.200000X-0.200000X-0.275000X0.200000X-0.275000X0.200000X0.275000X-0.200000X0.275000X0*%
%ADD34RoundRect,0.147500X0.172500X-0.147500X0.172500X0.147500X-0.172500X0.147500X-0.172500X-0.147500X0*%
G04 APERTURE END LIST*
D10*
%TO.C,RS1*%
X148537500Y-62500000D03*
X151462500Y-62500000D03*
%TD*%
D11*
%TO.C,Q3*%
X139420000Y-79118600D03*
X141960000Y-79118600D03*
X144500000Y-79118600D03*
X144500000Y-70000000D03*
X141960000Y-70000000D03*
X139420000Y-70000000D03*
%TD*%
D12*
%TO.C,C5*%
X72950000Y-84025000D03*
X72950000Y-85925000D03*
%TD*%
D13*
%TO.C,C1*%
X70000000Y-83500000D03*
X70000000Y-86450000D03*
%TD*%
D14*
%TO.C,F2*%
X72950000Y-63250000D03*
X83050000Y-63250000D03*
%TD*%
D15*
%TO.C,RS2*%
X125962500Y-62500000D03*
X123037500Y-62500000D03*
%TD*%
D16*
%TO.C,RS6*%
X153510000Y-96000000D03*
X152490000Y-96000000D03*
%TD*%
%TO.C,R5*%
X77910000Y-95500000D03*
X76890000Y-95500000D03*
%TD*%
D17*
%TO.C,RL2*%
X130000000Y-82260000D03*
X130000000Y-81240000D03*
%TD*%
D18*
%TO.C,U5*%
X113000000Y-102000000D03*
X113000000Y-100730000D03*
X113000000Y-99460000D03*
X113000000Y-98190000D03*
X113000000Y-96920000D03*
X113000000Y-95650000D03*
X113000000Y-94380000D03*
X113000000Y-93110000D03*
X113000000Y-91840000D03*
X113000000Y-90570000D03*
X113000000Y-89300000D03*
X113000000Y-88030000D03*
X113000000Y-86760000D03*
X113000000Y-85490000D03*
X95500000Y-85490000D03*
X95500000Y-86760000D03*
X95500000Y-88030000D03*
X95500000Y-89300000D03*
X95500000Y-90570000D03*
X95500000Y-91840000D03*
X95500000Y-93110000D03*
X95500000Y-94380000D03*
X95500000Y-95650000D03*
X95500000Y-96920000D03*
X95500000Y-98190000D03*
X95500000Y-99460000D03*
X95500000Y-100730000D03*
X95500000Y-102000000D03*
D19*
X105755000Y-96280000D03*
X107005000Y-97530000D03*
X107005000Y-96280000D03*
X107005000Y-95030000D03*
X105755000Y-95030000D03*
X104505000Y-95030000D03*
X104505000Y-96280000D03*
X104505000Y-97530000D03*
X105755000Y-97530000D03*
%TD*%
D20*
%TO.C,R6*%
X85440000Y-92050000D03*
X86460000Y-92050000D03*
%TD*%
D21*
%TO.C,U2*%
X75950000Y-84575000D03*
X75950000Y-85375000D03*
D22*
X75062500Y-84325000D03*
X75062500Y-84975000D03*
X75062500Y-85625000D03*
X76837500Y-85625000D03*
X76837500Y-84975000D03*
X76837500Y-84325000D03*
%TD*%
D23*
%TO.C,SW1*%
X73550000Y-95000000D03*
X65450000Y-95000000D03*
%TD*%
D24*
%TO.C,C7*%
X115400000Y-100900000D03*
X115400000Y-101860000D03*
%TD*%
%TO.C,C2*%
X116600000Y-100900000D03*
X116600000Y-101860000D03*
%TD*%
D25*
%TO.C,D3*%
X138850000Y-60200000D03*
X138850000Y-62500000D03*
X138850000Y-64800000D03*
D26*
X145150000Y-62500000D03*
%TD*%
D25*
%TO.C,D2*%
X129350000Y-60200000D03*
X129350000Y-62500000D03*
X129350000Y-64800000D03*
D26*
X135650000Y-62500000D03*
%TD*%
D17*
%TO.C,RL1*%
X139500000Y-82260000D03*
X139500000Y-81240000D03*
%TD*%
D27*
%TO.C,J13*%
X80830000Y-97500000D03*
X80830000Y-97000000D03*
X80830000Y-96500000D03*
X80830000Y-96000000D03*
X80830000Y-95500000D03*
X80830000Y-95000000D03*
X80830000Y-94500000D03*
X80830000Y-94000000D03*
X80830000Y-93500000D03*
X80830000Y-93000000D03*
X80830000Y-92500000D03*
X80830000Y-92000000D03*
X82500000Y-92000000D03*
X82500000Y-92500000D03*
X82500000Y-93000000D03*
X82500000Y-93500000D03*
X82500000Y-94000000D03*
X82500000Y-94500000D03*
X82500000Y-95000000D03*
X82500000Y-95500000D03*
X82500000Y-96000000D03*
X82500000Y-96500000D03*
X82500000Y-97000000D03*
X82500000Y-97500000D03*
D28*
X79515000Y-97150000D03*
X83815000Y-97150000D03*
X79515000Y-92350000D03*
X83815000Y-92350000D03*
%TD*%
D29*
%TO.C,C4*%
X76900000Y-87975000D03*
X75000000Y-87975000D03*
%TD*%
D16*
%TO.C,RS7*%
X141510000Y-85000000D03*
X140490000Y-85000000D03*
%TD*%
D12*
%TO.C,C6*%
X118200000Y-100430000D03*
X118200000Y-102330000D03*
%TD*%
D24*
%TO.C,C3*%
X116600000Y-98680000D03*
X116600000Y-99640000D03*
%TD*%
D30*
%TO.C,R7*%
X92500000Y-84490000D03*
X92500000Y-85510000D03*
%TD*%
D31*
%TO.C,C8*%
X93500000Y-85480000D03*
X93500000Y-84520000D03*
%TD*%
D16*
%TO.C,R3*%
X116510000Y-90600000D03*
X115490000Y-90600000D03*
%TD*%
D32*
%TO.C,D4*%
X79050000Y-86625000D03*
X79050000Y-83325000D03*
%TD*%
D33*
%TO.C,RG3*%
X141175000Y-67500000D03*
X142825000Y-67500000D03*
%TD*%
D16*
%TO.C,R4*%
X92940000Y-95630000D03*
X91920000Y-95630000D03*
%TD*%
%TO.C,RS4*%
X129510000Y-96000000D03*
X128490000Y-96000000D03*
%TD*%
D17*
%TO.C,R2*%
X115400000Y-99690000D03*
X115400000Y-98670000D03*
%TD*%
D33*
%TO.C,RG4*%
X131675000Y-67500000D03*
X133325000Y-67500000D03*
%TD*%
D16*
%TO.C,RS8*%
X129610000Y-85000000D03*
X128590000Y-85000000D03*
%TD*%
D32*
%TO.C,D5*%
X81450000Y-86625000D03*
X81450000Y-83325000D03*
%TD*%
D16*
%TO.C,RS5*%
X141510000Y-96000000D03*
X140490000Y-96000000D03*
%TD*%
D11*
%TO.C,Q4*%
X129960000Y-79059300D03*
X132500000Y-79059300D03*
X135040000Y-79059300D03*
X135040000Y-69940700D03*
X132500000Y-69940700D03*
X129960000Y-69940700D03*
%TD*%
D34*
%TO.C,D1*%
X90665000Y-95235000D03*
X90665000Y-94265000D03*
%TD*%
M02*
