M48
; DRILL file KiCad 10.0.4 date 2026-07-13T13:08:01
; FORMAT={-:-/ absolute / metric / decimal}
; #@! TF.CreationDate,2026-07-13T13:08:01+02:00
; #@! TF.GenerationSoftware,Kicad,Pcbnew,10.0.4
; #@! TF.FileFunction,Plated,1,4,PTH
FMAT,2
METRIC
; #@! TA.AperFunction,Plated,PTH,ViaDrill
T1C0.200
; #@! TA.AperFunction,Plated,PTH,ComponentDrill
T2C0.200
; #@! TA.AperFunction,Plated,PTH,ViaDrill
T3C0.300
; #@! TA.AperFunction,Plated,PTH,ViaDrill
T4C0.400
; #@! TA.AperFunction,Plated,PTH,ComponentDrill
T5C0.700
; #@! TA.AperFunction,Plated,PTH,ComponentDrill
T6C0.760
; #@! TA.AperFunction,Plated,PTH,ComponentDrill
T7C0.800
; #@! TA.AperFunction,Plated,PTH,ComponentDrill
T8C1.200
; #@! TA.AperFunction,Plated,PTH,ComponentDrill
T9C3.200
%
G90
G05
T1
X79.599Y-94.192
X80.14Y-94.45
X81.734Y-94.36
X81.75Y-95.1
T2
X75.95Y-84.425
X75.95Y-85.525
T3
X97.0Y-99.4
X97.0Y-100.6
X110.0Y-88.8
X110.0Y-90.0
X129.4Y-82.2
X139.6Y-82.8
T4
X65.0Y-85.0
X65.0Y-90.0
X68.25Y-83.5
X68.5Y-82.75
X68.5Y-84.25
X69.25Y-82.5
X69.25Y-84.5
X70.0Y-82.5
X70.0Y-84.5
X70.0Y-90.0
X70.0Y-95.0
X70.0Y-100.0
X70.0Y-105.0
X70.75Y-82.5
X70.75Y-84.5
X71.5Y-82.75
X71.5Y-84.25
X73.75Y-93.5
X75.0Y-90.0
X75.0Y-100.0
X75.0Y-105.0
X78.5Y-93.5
X80.0Y-85.0
X80.0Y-100.0
X80.0Y-105.0
X83.5Y-96.0
X85.0Y-100.0
X85.0Y-105.0
X87.6Y-54.0
X90.0Y-100.0
X91.75Y-84.5
X91.75Y-85.5
X95.0Y-70.0
X100.0Y-70.0
X100.0Y-75.0
X100.0Y-100.0
X105.0Y-75.0
X105.0Y-100.0
X110.0Y-70.0
X110.0Y-75.0
X110.0Y-95.0
X110.0Y-100.0
X115.0Y-80.0
X115.0Y-95.0
X117.0Y-89.8
X117.0Y-91.4
X117.4Y-90.6
X118.4Y-99.6
X119.2Y-99.6
X119.2Y-101.2
X119.4Y-100.4
X120.0Y-105.0
X130.0Y-105.0
X134.6Y-57.6
X135.0Y-90.0
X135.0Y-100.0
X135.65Y-57.6
X136.8Y-57.6
X140.0Y-105.0
X145.0Y-85.0
X145.0Y-90.0
X145.0Y-100.0
X145.0Y-105.0
X150.0Y-85.0
X150.0Y-90.0
X150.0Y-105.0
X155.0Y-85.0
X155.0Y-90.0
X155.0Y-95.0
X160.0Y-85.0
T5
X79.515Y-92.35
X79.515Y-97.15
X83.815Y-92.35
X83.815Y-97.15
T6
X95.752Y-74.74
X113.532Y-69.66
X113.532Y-74.74
T7
X74.25Y-70.05
X81.75Y-72.45
X95.752Y-44.26
X95.752Y-49.34
T8
X73.9Y-44.597
X73.9Y-52.797
X78.9Y-44.597
X78.9Y-52.797
X83.9Y-44.597
X83.9Y-52.797
X124.555Y-42.3
X124.555Y-57.3
X125.35Y-87.9
X125.35Y-91.0
X125.35Y-98.9
X125.35Y-102.0
X127.85Y-87.9
X127.85Y-91.0
X127.85Y-98.9
X127.85Y-102.0
X130.35Y-87.9
X130.35Y-91.0
X130.35Y-98.9
X130.35Y-102.0
X132.9Y-44.597
X132.9Y-52.797
X137.35Y-87.9
X137.35Y-91.0
X137.35Y-98.9
X137.35Y-102.0
X137.9Y-44.597
X137.9Y-52.797
X139.85Y-87.9
X139.85Y-91.0
X139.85Y-98.9
X139.85Y-102.0
X142.35Y-87.9
X142.35Y-91.0
X142.35Y-98.9
X142.35Y-102.0
X142.9Y-44.597
X142.9Y-52.797
X149.35Y-98.9
X149.35Y-102.0
X150.055Y-42.3
X150.055Y-57.3
X151.85Y-98.9
X151.85Y-102.0
X154.35Y-98.9
X154.35Y-102.0
T9
X65.05Y-43.05
X65.4Y-105.6
X157.6Y-105.6
X157.95Y-43.05
M30
