%TF.GenerationSoftware,KiCad,Pcbnew,10.0.4*%
%TF.CreationDate,2026-07-13T13:08:04+02:00*%
%TF.ProjectId,ValveController,56616c76-6543-46f6-9e74-726f6c6c6572,rev?*%
%TF.SameCoordinates,Original*%
%TF.FileFunction,Soldermask,Bot*%
%TF.FilePolarity,Negative*%
%FSLAX46Y46*%
G04 Gerber Fmt 4.6, Leading zero omitted, Abs format (unit mm)*
G04 Created by KiCad (PCBNEW 10.0.4) date 2026-07-13 13:08:04*
%MOMM*%
%LPD*%
G01*
G04 APERTURE LIST*
G04 Aperture macros list*
%AMRoundRect*
0 Rectangle with rounded corners*
0 $1 Rounding radius*
0 $2 $3 $4 $5 $6 $7 $8 $9 X,Y pos of 4 corners*
0 Add a 4 corners polygon primitive as box body*
4,1,4,$2,$3,$4,$5,$6,$7,$8,$9,$2,$3,0*
0 Add four circle primitives for the rounded corners*
1,1,$1+$1,$2,$3*
1,1,$1+$1,$4,$5*
1,1,$1+$1,$6,$7*
1,1,$1+$1,$8,$9*
0 Add four rect primitives between the rounded corners*
20,1,$1+$1,$2,$3,$4,$5,0*
20,1,$1+$1,$4,$5,$6,$7,0*
20,1,$1+$1,$6,$7,$8,$9,0*
20,1,$1+$1,$8,$9,$2,$3,0*%
G04 Aperture macros list end*
%ADD10C,5.600000*%
%ADD11C,2.400000*%
%ADD12C,2.200000*%
%ADD13RoundRect,0.249999X0.850001X0.850001X-0.850001X0.850001X-0.850001X-0.850001X0.850001X-0.850001X0*%
%ADD14R,2.000000X2.000000*%
%ADD15RoundRect,0.250000X-0.750000X-0.750000X0.750000X-0.750000X0.750000X0.750000X-0.750000X0.750000X0*%
%ADD16C,2.000000*%
%ADD17C,1.800000*%
%ADD18C,0.660000*%
%ADD19O,0.580000X1.000000*%
%ADD20C,1.100000*%
%ADD21R,2.300000X2.000000*%
%ADD22C,2.300000*%
G04 APERTURE END LIST*
D10*
%TO.C,H2*%
X157950000Y-43050000D03*
%TD*%
D11*
%TO.C,CS2*%
X124554901Y-57300000D03*
X124554901Y-42300000D03*
%TD*%
D10*
%TO.C,H3*%
X65400000Y-105600000D03*
%TD*%
D12*
%TO.C,J3*%
X83900000Y-52797500D03*
D13*
X83900000Y-44597500D03*
D12*
X78900000Y-52797500D03*
X78900000Y-44597500D03*
X73900000Y-52797500D03*
X73900000Y-44597500D03*
%TD*%
D10*
%TO.C,H1*%
X65050000Y-43050000D03*
%TD*%
D14*
%TO.C,J8*%
X125350000Y-98900000D03*
D15*
X125350000Y-102000000D03*
D16*
X127850000Y-98900000D03*
X127850000Y-102000000D03*
X130350000Y-98900000D03*
X130350000Y-102000000D03*
%TD*%
D14*
%TO.C,J11*%
X137350000Y-87900000D03*
D15*
X137350000Y-91000000D03*
D16*
X139850000Y-87900000D03*
X139850000Y-91000000D03*
X142350000Y-87900000D03*
X142350000Y-91000000D03*
%TD*%
D17*
%TO.C,R1*%
X74250000Y-70050000D03*
X81750000Y-72450000D03*
%TD*%
D18*
%TO.C,J13*%
X81665000Y-98500000D03*
D19*
X81665000Y-91000000D03*
D20*
X79515000Y-97150000D03*
X83815000Y-97150000D03*
X79515000Y-92350000D03*
X83815000Y-92350000D03*
%TD*%
D10*
%TO.C,H4*%
X157600000Y-105600000D03*
%TD*%
D14*
%TO.C,J10*%
X149350000Y-98900000D03*
D15*
X149350000Y-102000000D03*
D16*
X151850000Y-98900000D03*
X151850000Y-102000000D03*
X154350000Y-98900000D03*
X154350000Y-102000000D03*
%TD*%
D21*
%TO.C,U1*%
X95752500Y-44260000D03*
D22*
X95752500Y-49340000D03*
X95752500Y-74740000D03*
X113532500Y-74740000D03*
X113532500Y-69660000D03*
%TD*%
D12*
%TO.C,J2*%
X142900000Y-52797500D03*
D13*
X142900000Y-44597500D03*
D12*
X137900000Y-52797500D03*
X137900000Y-44597500D03*
X132900000Y-52797500D03*
X132900000Y-44597500D03*
%TD*%
D14*
%TO.C,J12*%
X125350000Y-87900000D03*
D15*
X125350000Y-91000000D03*
D16*
X127850000Y-87900000D03*
X127850000Y-91000000D03*
X130350000Y-87900000D03*
X130350000Y-91000000D03*
%TD*%
D14*
%TO.C,J9*%
X137350000Y-98900000D03*
D15*
X137350000Y-102000000D03*
D16*
X139850000Y-98900000D03*
X139850000Y-102000000D03*
X142350000Y-98900000D03*
X142350000Y-102000000D03*
%TD*%
D11*
%TO.C,CS1*%
X150054901Y-57300000D03*
X150054901Y-42300000D03*
%TD*%
M02*
