%TF.GenerationSoftware,KiCad,Pcbnew,10.0.4*%
%TF.CreationDate,2026-07-13T13:08:03+02:00*%
%TF.ProjectId,ValveController,56616c76-6543-46f6-9e74-726f6c6c6572,rev?*%
%TF.SameCoordinates,Original*%
%TF.FileFunction,Copper,L2,Inr*%
%TF.FilePolarity,Positive*%
%FSLAX46Y46*%
G04 Gerber Fmt 4.6, Leading zero omitted, Abs format (unit mm)*
G04 Created by KiCad (PCBNEW 10.0.4) date 2026-07-13 13:08:03*
%MOMM*%
%LPD*%
G01*
G04 APERTURE LIST*
G04 Aperture macros list*
%AMRoundRect*
0 Rectangle with rounded corners*
0 $1 Rounding radius*
0 $2 $3 $4 $5 $6 $7 $8 $9 X,Y pos of 4 corners*
0 Add a 4 corners polygon primitive as box body*
4,1,4,$2,$3,$4,$5,$6,$7,$8,$9,$2,$3,0*
0 Add four circle primitives for the rounded corners*
1,1,$1+$1,$2,$3*
1,1,$1+$1,$4,$5*
1,1,$1+$1,$6,$7*
1,1,$1+$1,$8,$9*
0 Add four rect primitives between the rounded corners*
20,1,$1+$1,$2,$3,$4,$5,0*
20,1,$1+$1,$4,$5,$6,$7,0*
20,1,$1+$1,$6,$7,$8,$9,0*
20,1,$1+$1,$8,$9,$2,$3,0*%
G04 Aperture macros list end*
%TA.AperFunction,ComponentPad*%
%ADD10C,5.600000*%
%TD*%
%TA.AperFunction,ComponentPad*%
%ADD11C,2.400000*%
%TD*%
%TA.AperFunction,ComponentPad*%
%ADD12C,2.200000*%
%TD*%
%TA.AperFunction,ComponentPad*%
%ADD13RoundRect,0.249999X0.850001X0.850001X-0.850001X0.850001X-0.850001X-0.850001X0.850001X-0.850001X0*%
%TD*%
%TA.AperFunction,ComponentPad*%
%ADD14R,2.000000X2.000000*%
%TD*%
%TA.AperFunction,ComponentPad*%
%ADD15RoundRect,0.250000X-0.750000X-0.750000X0.750000X-0.750000X0.750000X0.750000X-0.750000X0.750000X0*%
%TD*%
%TA.AperFunction,ComponentPad*%
%ADD16C,2.000000*%
%TD*%
%TA.AperFunction,HeatsinkPad*%
%ADD17C,0.500000*%
%TD*%
%TA.AperFunction,ComponentPad*%
%ADD18C,1.800000*%
%TD*%
%TA.AperFunction,ComponentPad*%
%ADD19C,1.100000*%
%TD*%
%TA.AperFunction,ComponentPad*%
%ADD20R,2.300000X2.000000*%
%TD*%
%TA.AperFunction,ComponentPad*%
%ADD21C,2.300000*%
%TD*%
%TA.AperFunction,ViaPad*%
%ADD22C,0.800000*%
%TD*%
%TA.AperFunction,ViaPad*%
%ADD23C,0.600000*%
%TD*%
%TA.AperFunction,ViaPad*%
%ADD24C,0.400000*%
%TD*%
G04 APERTURE END LIST*
D10*
%TO.N,N/C*%
%TO.C,H2*%
X157950000Y-43050000D03*
%TD*%
D11*
%TO.N,RS2_m*%
%TO.C,CS2*%
X124554901Y-57300000D03*
%TO.N,VALVE_CLOSE*%
X124554901Y-42300000D03*
%TD*%
D10*
%TO.N,N/C*%
%TO.C,H3*%
X65400000Y-105600000D03*
%TD*%
D12*
%TO.N,MAINS_L*%
%TO.C,J3*%
X83900000Y-52797500D03*
D13*
X83900000Y-44597500D03*
D12*
%TO.N,MAINS_N*%
X78900000Y-52797500D03*
X78900000Y-44597500D03*
%TO.N,PE*%
X73900000Y-52797500D03*
X73900000Y-44597500D03*
%TD*%
D10*
%TO.N,N/C*%
%TO.C,H1*%
X65050000Y-43050000D03*
%TD*%
D14*
%TO.N,GND*%
%TO.C,J8*%
X125350000Y-98900000D03*
D15*
X125350000Y-102000000D03*
D16*
%TO.N,TEMP_SUPPLY*%
X127850000Y-98900000D03*
X127850000Y-102000000D03*
%TO.N,3V3*%
X130350000Y-98900000D03*
X130350000Y-102000000D03*
%TD*%
D14*
%TO.N,GND*%
%TO.C,J11*%
X137350000Y-87900000D03*
D15*
X137350000Y-91000000D03*
D16*
%TO.N,TEMP_HX_A*%
X139850000Y-87900000D03*
X139850000Y-91000000D03*
%TO.N,3V3*%
X142350000Y-87900000D03*
X142350000Y-91000000D03*
%TD*%
D17*
%TO.N,GND*%
%TO.C,U2*%
X75950000Y-84425000D03*
X75950000Y-85525000D03*
%TD*%
D18*
%TO.N,MAINS_N*%
%TO.C,R1*%
X74250000Y-70050000D03*
%TO.N,MAINS_L_F*%
X81750000Y-72450000D03*
%TD*%
D19*
%TO.N,GND*%
%TO.C,J13*%
X79515000Y-97150000D03*
X83815000Y-97150000D03*
X79515000Y-92350000D03*
X83815000Y-92350000D03*
%TD*%
D10*
%TO.N,N/C*%
%TO.C,H4*%
X157600000Y-105600000D03*
%TD*%
D14*
%TO.N,GND*%
%TO.C,J10*%
X149350000Y-98900000D03*
D15*
X149350000Y-102000000D03*
D16*
%TO.N,TEMP_SOURCE*%
X151850000Y-98900000D03*
X151850000Y-102000000D03*
%TO.N,3V3*%
X154350000Y-98900000D03*
X154350000Y-102000000D03*
%TD*%
D20*
%TO.N,MAINS_L_F*%
%TO.C,U1*%
X95752500Y-44260000D03*
D21*
%TO.N,MAINS_N*%
X95752500Y-49340000D03*
%TO.N,unconnected-(U1-NC-Pad5)*%
X95752500Y-74740000D03*
%TO.N,GND*%
X113532500Y-74740000D03*
%TO.N,PSU_5V*%
X113532500Y-69660000D03*
%TD*%
D12*
%TO.N,VALVE_OPEN*%
%TO.C,J2*%
X142900000Y-52797500D03*
D13*
X142900000Y-44597500D03*
D12*
%TO.N,MAINS_N*%
X137900000Y-52797500D03*
X137900000Y-44597500D03*
%TO.N,VALVE_CLOSE*%
X132900000Y-52797500D03*
X132900000Y-44597500D03*
%TD*%
D14*
%TO.N,GND*%
%TO.C,J12*%
X125350000Y-87900000D03*
D15*
X125350000Y-91000000D03*
D16*
%TO.N,TEMP_HX_B*%
X127850000Y-87900000D03*
X127850000Y-91000000D03*
%TO.N,3V3*%
X130350000Y-87900000D03*
X130350000Y-91000000D03*
%TD*%
D14*
%TO.N,GND*%
%TO.C,J9*%
X137350000Y-98900000D03*
D15*
X137350000Y-102000000D03*
D16*
%TO.N,TEMP_RETURN*%
X139850000Y-98900000D03*
X139850000Y-102000000D03*
%TO.N,3V3*%
X142350000Y-98900000D03*
X142350000Y-102000000D03*
%TD*%
D11*
%TO.N,RS1_m*%
%TO.C,CS1*%
X150054901Y-57300000D03*
%TO.N,VALVE_OPEN*%
X150054901Y-42300000D03*
%TD*%
D22*
%TO.N,MAINS_L_F*%
X87600000Y-54000000D03*
X135650000Y-57600000D03*
X134600000Y-57600000D03*
X136800000Y-57600000D03*
%TO.N,GND*%
X70000000Y-105000000D03*
X100000000Y-100000000D03*
X115000000Y-95000000D03*
X75000000Y-100000000D03*
X100000000Y-75000000D03*
X155000000Y-85000000D03*
X70000000Y-90000000D03*
X135000000Y-100000000D03*
X145000000Y-90000000D03*
X95000000Y-70000000D03*
X110000000Y-95000000D03*
X80000000Y-100000000D03*
X155000000Y-95000000D03*
X110000000Y-100000000D03*
X105000000Y-75000000D03*
X160000000Y-85000000D03*
X110000000Y-75000000D03*
X65000000Y-85000000D03*
X70000000Y-100000000D03*
X80000000Y-105000000D03*
X150000000Y-105000000D03*
X110000000Y-70000000D03*
X140000000Y-105000000D03*
X75000000Y-105000000D03*
X145000000Y-100000000D03*
X155000000Y-90000000D03*
X150000000Y-85000000D03*
X85000000Y-105000000D03*
X150000000Y-90000000D03*
X145000000Y-85000000D03*
X75000000Y-90000000D03*
X85000000Y-100000000D03*
X130000000Y-105000000D03*
X100000000Y-70000000D03*
X145000000Y-105000000D03*
X135000000Y-90000000D03*
X80000000Y-85000000D03*
X65000000Y-90000000D03*
X115000000Y-80000000D03*
X70000000Y-95000000D03*
X120000000Y-105000000D03*
X90000000Y-100000000D03*
X105000000Y-100000000D03*
%TO.N,3V3*%
X69250000Y-84500000D03*
X119200000Y-99600000D03*
X70750000Y-84500000D03*
X117400000Y-90600000D03*
X68500000Y-82750000D03*
X117000000Y-89800000D03*
X119200000Y-101200000D03*
X70750000Y-82500000D03*
X71500000Y-84250000D03*
X91750000Y-84500000D03*
X68500000Y-84250000D03*
X70000000Y-84500000D03*
X117000000Y-91400000D03*
X71500000Y-82750000D03*
X118400000Y-99600000D03*
X69250000Y-82500000D03*
X119400000Y-100400000D03*
X68250000Y-83500000D03*
X70000000Y-82500000D03*
D23*
%TO.N,SSR_CLOSE*%
X97000000Y-99400000D03*
X129400000Y-82200000D03*
D24*
%TO.N,USB_D-*%
X80140425Y-94450000D03*
X81750000Y-95100000D03*
%TO.N,USB_D+*%
X79598655Y-94192148D03*
X81734335Y-94359640D03*
D22*
%TO.N,BOOT*%
X91750000Y-85500000D03*
X73750000Y-93500000D03*
D23*
%TO.N,TEMP_HX_A*%
X110000000Y-88800000D03*
%TO.N,TEMP_HX_B*%
X110000000Y-90000000D03*
%TO.N,SSR_OPEN*%
X97000000Y-100600000D03*
X139600000Y-82800000D03*
D22*
%TO.N,VBUS*%
X83500000Y-96000000D03*
X78500000Y-93500000D03*
%TD*%
%TA.AperFunction,Conductor*%
%TO.N,GND*%
G36*
X125600000Y-101451517D02*
G01*
X125581591Y-101440889D01*
X125428991Y-101400000D01*
X125271009Y-101400000D01*
X125118409Y-101440889D01*
X125100000Y-101451517D01*
X125100000Y-99448482D01*
X125118409Y-99459111D01*
X125271009Y-99500000D01*
X125428991Y-99500000D01*
X125581591Y-99459111D01*
X125600000Y-99448482D01*
X125600000Y-101451517D01*
G37*
%TD.AperFunction*%
%TA.AperFunction,Conductor*%
G36*
X137600000Y-101451517D02*
G01*
X137581591Y-101440889D01*
X137428991Y-101400000D01*
X137271009Y-101400000D01*
X137118409Y-101440889D01*
X137100000Y-101451517D01*
X137100000Y-99448482D01*
X137118409Y-99459111D01*
X137271009Y-99500000D01*
X137428991Y-99500000D01*
X137581591Y-99459111D01*
X137600000Y-99448482D01*
X137600000Y-101451517D01*
G37*
%TD.AperFunction*%
%TA.AperFunction,Conductor*%
G36*
X125600000Y-90451517D02*
G01*
X125581591Y-90440889D01*
X125428991Y-90400000D01*
X125271009Y-90400000D01*
X125118409Y-90440889D01*
X125100000Y-90451517D01*
X125100000Y-88448482D01*
X125118409Y-88459111D01*
X125271009Y-88500000D01*
X125428991Y-88500000D01*
X125581591Y-88459111D01*
X125600000Y-88448482D01*
X125600000Y-90451517D01*
G37*
%TD.AperFunction*%
%TA.AperFunction,Conductor*%
G36*
X137600000Y-90451517D02*
G01*
X137581591Y-90440889D01*
X137428991Y-90400000D01*
X137271009Y-90400000D01*
X137118409Y-90440889D01*
X137100000Y-90451517D01*
X137100000Y-88448482D01*
X137118409Y-88459111D01*
X137271009Y-88500000D01*
X137428991Y-88500000D01*
X137581591Y-88459111D01*
X137600000Y-88448482D01*
X137600000Y-90451517D01*
G37*
%TD.AperFunction*%
%TA.AperFunction,Conductor*%
G36*
X116443039Y-67019685D02*
G01*
X116488794Y-67072489D01*
X116500000Y-67124000D01*
X116500000Y-80000000D01*
X160375500Y-80000000D01*
X160442539Y-80019685D01*
X160488294Y-80072489D01*
X160499500Y-80124000D01*
X160499500Y-103589893D01*
X160479815Y-103656932D01*
X160427011Y-103702687D01*
X160357853Y-103712631D01*
X160294297Y-103683606D01*
X160272398Y-103658784D01*
X160254189Y-103631532D01*
X160254184Y-103631526D01*
X160254183Y-103631524D01*
X160048458Y-103380847D01*
X160048457Y-103380846D01*
X160048453Y-103380841D01*
X159819158Y-103151546D01*
X159568481Y-102945821D01*
X159568480Y-102945820D01*
X159568476Y-102945817D01*
X159298842Y-102765653D01*
X159298837Y-102765650D01*
X159298830Y-102765646D01*
X159012854Y-102612788D01*
X159012849Y-102612786D01*
X158713247Y-102488686D01*
X158402913Y-102394548D01*
X158402902Y-102394545D01*
X158084874Y-102331287D01*
X158084857Y-102331284D01*
X157840812Y-102307248D01*
X157762143Y-102299500D01*
X157437857Y-102299500D01*
X157365099Y-102306666D01*
X157115142Y-102331284D01*
X157115125Y-102331287D01*
X156797097Y-102394545D01*
X156797086Y-102394548D01*
X156486752Y-102488686D01*
X156187150Y-102612786D01*
X156187145Y-102612788D01*
X155901159Y-102765652D01*
X155900981Y-102765759D01*
X155900938Y-102765769D01*
X155898473Y-102767088D01*
X155898155Y-102766493D01*
X155833358Y-102783335D01*
X155766968Y-102761562D01*
X155722888Y-102707351D01*
X155715115Y-102637916D01*
X155726756Y-102603100D01*
X155740565Y-102575998D01*
X155740566Y-102575996D01*
X155740568Y-102575992D01*
X155813553Y-102351368D01*
X155850500Y-102118097D01*
X155850500Y-101881902D01*
X155813553Y-101648631D01*
X155740566Y-101424003D01*
X155682167Y-101309390D01*
X155633343Y-101213567D01*
X155494517Y-101022490D01*
X155327510Y-100855483D01*
X155136433Y-100716657D01*
X155062221Y-100678844D01*
X154925996Y-100609433D01*
X154798265Y-100567931D01*
X154740590Y-100528493D01*
X154713392Y-100464134D01*
X154725307Y-100395288D01*
X154772551Y-100343812D01*
X154798265Y-100332069D01*
X154925992Y-100290568D01*
X155136433Y-100183343D01*
X155327510Y-100044517D01*
X155494517Y-99877510D01*
X155633343Y-99686433D01*
X155740568Y-99475992D01*
X155813553Y-99251368D01*
X155850500Y-99018097D01*
X155850500Y-98781902D01*
X155813553Y-98548631D01*
X155740566Y-98324003D01*
X155648629Y-98143568D01*
X155633343Y-98113567D01*
X155494517Y-97922490D01*
X155327510Y-97755483D01*
X155136433Y-97616657D01*
X154925996Y-97509433D01*
X154701368Y-97436446D01*
X154468097Y-97399500D01*
X154468092Y-97399500D01*
X154231908Y-97399500D01*
X154231903Y-97399500D01*
X153998631Y-97436446D01*
X153774003Y-97509433D01*
X153563566Y-97616657D01*
X153467438Y-97686499D01*
X153372490Y-97755483D01*
X153372488Y-97755485D01*
X153372487Y-97755485D01*
X153205482Y-97922490D01*
X153200315Y-97929603D01*
X153144983Y-97972266D01*
X153075370Y-97978242D01*
X153013576Y-97945634D01*
X152999685Y-97929603D01*
X152994517Y-97922490D01*
X152827512Y-97755485D01*
X152827510Y-97755483D01*
X152636433Y-97616657D01*
X152425996Y-97509433D01*
X152201368Y-97436446D01*
X151968097Y-97399500D01*
X151968092Y-97399500D01*
X151731908Y-97399500D01*
X151731903Y-97399500D01*
X151498631Y-97436446D01*
X151274003Y-97509433D01*
X151063564Y-97616658D01*
X150967435Y-97686499D01*
X150901629Y-97709978D01*
X150833575Y-97694152D01*
X150795285Y-97660491D01*
X150707190Y-97542812D01*
X150707187Y-97542809D01*
X150592093Y-97456649D01*
X150592086Y-97456645D01*
X150457379Y-97406403D01*
X150457372Y-97406401D01*
X150397844Y-97400000D01*
X149600000Y-97400000D01*
X149600000Y-98351517D01*
X149581591Y-98340889D01*
X149428991Y-98300000D01*
X149271009Y-98300000D01*
X149118409Y-98340889D01*
X149100000Y-98351517D01*
X149100000Y-97400000D01*
X148302155Y-97400000D01*
X148242627Y-97406401D01*
X148242620Y-97406403D01*
X148107913Y-97456645D01*
X148107906Y-97456649D01*
X147992812Y-97542809D01*
X147992809Y-97542812D01*
X147906649Y-97657906D01*
X147906645Y-97657913D01*
X147856403Y-97792620D01*
X147856401Y-97792627D01*
X147850000Y-97852155D01*
X147850000Y-98650000D01*
X148801518Y-98650000D01*
X148790889Y-98668409D01*
X148750000Y-98821009D01*
X148750000Y-98978991D01*
X148790889Y-99131591D01*
X148801518Y-99150000D01*
X147850000Y-99150000D01*
X147850000Y-99947844D01*
X147856401Y-100007372D01*
X147856403Y-100007379D01*
X147906645Y-100142086D01*
X147906649Y-100142093D01*
X147992809Y-100257187D01*
X147992812Y-100257190D01*
X148107906Y-100343350D01*
X148107913Y-100343354D01*
X148202710Y-100378711D01*
X148258644Y-100420582D01*
X148283061Y-100486046D01*
X148268210Y-100554319D01*
X148224474Y-100600431D01*
X148131659Y-100657680D01*
X148131655Y-100657683D01*
X148007684Y-100781654D01*
X147915643Y-100930875D01*
X147915641Y-100930880D01*
X147860494Y-101097302D01*
X147860493Y-101097309D01*
X147850000Y-101200013D01*
X147850000Y-101750000D01*
X148801518Y-101750000D01*
X148790889Y-101768409D01*
X148750000Y-101921009D01*
X148750000Y-102078991D01*
X148790889Y-102231591D01*
X148801518Y-102250000D01*
X147850001Y-102250000D01*
X147850001Y-102799986D01*
X147860494Y-102902697D01*
X147915641Y-103069119D01*
X147915643Y-103069124D01*
X148007684Y-103218345D01*
X148131654Y-103342315D01*
X148280875Y-103434356D01*
X148280880Y-103434358D01*
X148447302Y-103489505D01*
X148447309Y-103489506D01*
X148550019Y-103499999D01*
X149099999Y-103499999D01*
X149100000Y-103499998D01*
X149100000Y-102548482D01*
X149118409Y-102559111D01*
X149271009Y-102600000D01*
X149428991Y-102600000D01*
X149581591Y-102559111D01*
X149600000Y-102548482D01*
X149600000Y-103499999D01*
X150149972Y-103499999D01*
X150149986Y-103499998D01*
X150252697Y-103489505D01*
X150419119Y-103434358D01*
X150419124Y-103434356D01*
X150568345Y-103342315D01*
X150692317Y-103218343D01*
X150709301Y-103190808D01*
X150761248Y-103144083D01*
X150830211Y-103132860D01*
X150887724Y-103155585D01*
X151063567Y-103283343D01*
X151162991Y-103334002D01*
X151274003Y-103390566D01*
X151274005Y-103390566D01*
X151274008Y-103390568D01*
X151380289Y-103425101D01*
X151498631Y-103463553D01*
X151731903Y-103500500D01*
X151731908Y-103500500D01*
X151968097Y-103500500D01*
X152201368Y-103463553D01*
X152214808Y-103459186D01*
X152425992Y-103390568D01*
X152636433Y-103283343D01*
X152827510Y-103144517D01*
X152994517Y-102977510D01*
X152999682Y-102970401D01*
X153055012Y-102927735D01*
X153124625Y-102921756D01*
X153186420Y-102954362D01*
X153200318Y-102970401D01*
X153205483Y-102977510D01*
X153372490Y-103144517D01*
X153563567Y-103283343D01*
X153662991Y-103334002D01*
X153774003Y-103390566D01*
X153774005Y-103390566D01*
X153774008Y-103390568D01*
X153880289Y-103425101D01*
X153998631Y-103463553D01*
X154231903Y-103500500D01*
X154231908Y-103500500D01*
X154468097Y-103500500D01*
X154701368Y-103463553D01*
X154714808Y-103459186D01*
X154819710Y-103425100D01*
X154889550Y-103423106D01*
X154949383Y-103459186D01*
X154980212Y-103521886D01*
X154972248Y-103591301D01*
X154953885Y-103621693D01*
X154945816Y-103631525D01*
X154945811Y-103631532D01*
X154765657Y-103901151D01*
X154765646Y-103901169D01*
X154612788Y-104187145D01*
X154612786Y-104187150D01*
X154488686Y-104486752D01*
X154394548Y-104797086D01*
X154394545Y-104797097D01*
X154331287Y-105115125D01*
X154331284Y-105115142D01*
X154299500Y-105437860D01*
X154299500Y-105762139D01*
X154331284Y-106084857D01*
X154331287Y-106084874D01*
X154394545Y-106402902D01*
X154394548Y-106402913D01*
X154394550Y-106402922D01*
X154394551Y-106402923D01*
X154488686Y-106713246D01*
X154605629Y-106995572D01*
X154612786Y-107012849D01*
X154612788Y-107012854D01*
X154765646Y-107298830D01*
X154765657Y-107298848D01*
X154945811Y-107568467D01*
X154945821Y-107568481D01*
X155151546Y-107819158D01*
X155380841Y-108048453D01*
X155631518Y-108254178D01*
X155631532Y-108254189D01*
X155658784Y-108272398D01*
X155703589Y-108326011D01*
X155712296Y-108395336D01*
X155682141Y-108458363D01*
X155622698Y-108495082D01*
X155589893Y-108499500D01*
X118004428Y-108499500D01*
X117995582Y-108499184D01*
X117973622Y-108497613D01*
X117795442Y-108484869D01*
X117777931Y-108482351D01*
X117586209Y-108440645D01*
X117569234Y-108435661D01*
X117385394Y-108367093D01*
X117369300Y-108359743D01*
X117197091Y-108265709D01*
X117182208Y-108256144D01*
X117025135Y-108138561D01*
X117011764Y-108126975D01*
X116873024Y-107988235D01*
X116861438Y-107974864D01*
X116743855Y-107817791D01*
X116734290Y-107802908D01*
X116640256Y-107630699D01*
X116632909Y-107614611D01*
X116564336Y-107430760D01*
X116559354Y-107413790D01*
X116534350Y-107298848D01*
X116517647Y-107222063D01*
X116515130Y-107204556D01*
X116500816Y-107004418D01*
X116500500Y-106995572D01*
X116500500Y-105848745D01*
X116489984Y-105762139D01*
X116464037Y-105548449D01*
X116391643Y-105254734D01*
X116284373Y-104971887D01*
X116143793Y-104704032D01*
X115971950Y-104455076D01*
X115971945Y-104455070D01*
X115771353Y-104228648D01*
X115771351Y-104228646D01*
X115544929Y-104028054D01*
X115544926Y-104028052D01*
X115544924Y-104028050D01*
X115295968Y-103856207D01*
X115028113Y-103715627D01*
X115019330Y-103712296D01*
X114745271Y-103608358D01*
X114670354Y-103589893D01*
X114451551Y-103535963D01*
X114271371Y-103514085D01*
X114151254Y-103499500D01*
X114151252Y-103499500D01*
X114065892Y-103499500D01*
X94565892Y-103499500D01*
X94500000Y-103499500D01*
X94348748Y-103499500D01*
X94348746Y-103499500D01*
X94198598Y-103517731D01*
X94048449Y-103535963D01*
X93899459Y-103572685D01*
X93754728Y-103608358D01*
X93471886Y-103715627D01*
X93306685Y-103802330D01*
X93204032Y-103856207D01*
X93204030Y-103856208D01*
X93204025Y-103856211D01*
X92955070Y-104028054D01*
X92728648Y-104228646D01*
X92728646Y-104228648D01*
X92528054Y-104455070D01*
X92356211Y-104704025D01*
X92215627Y-104971886D01*
X92108358Y-105254728D01*
X92108357Y-105254734D01*
X92035963Y-105548449D01*
X92021377Y-105668568D01*
X91999500Y-105848745D01*
X91999500Y-106995572D01*
X91999184Y-107004418D01*
X91999184Y-107004419D01*
X91984869Y-107204557D01*
X91982351Y-107222068D01*
X91940645Y-107413790D01*
X91935661Y-107430765D01*
X91867093Y-107614605D01*
X91859743Y-107630699D01*
X91765709Y-107802908D01*
X91756144Y-107817791D01*
X91638561Y-107974864D01*
X91626975Y-107988235D01*
X91488235Y-108126975D01*
X91474864Y-108138561D01*
X91317791Y-108256144D01*
X91302908Y-108265709D01*
X91130699Y-108359743D01*
X91114605Y-108367093D01*
X90930765Y-108435661D01*
X90913790Y-108440645D01*
X90722068Y-108482351D01*
X90704557Y-108484869D01*
X90523779Y-108497799D01*
X90504417Y-108499184D01*
X90495572Y-108499500D01*
X67410107Y-108499500D01*
X67343068Y-108479815D01*
X67297313Y-108427011D01*
X67287369Y-108357853D01*
X67316394Y-108294297D01*
X67341216Y-108272398D01*
X67368467Y-108254189D01*
X67368466Y-108254189D01*
X67368476Y-108254183D01*
X67619153Y-108048458D01*
X67848458Y-107819153D01*
X68054183Y-107568476D01*
X68234347Y-107298842D01*
X68387215Y-107012847D01*
X68511314Y-106713246D01*
X68605449Y-106402923D01*
X68605451Y-106402913D01*
X68605454Y-106402902D01*
X68637399Y-106242295D01*
X68668714Y-106084868D01*
X68700500Y-105762143D01*
X68700500Y-105437857D01*
X68668714Y-105115132D01*
X68640221Y-104971886D01*
X68605454Y-104797097D01*
X68605451Y-104797086D01*
X68605450Y-104797083D01*
X68605449Y-104797077D01*
X68511314Y-104486754D01*
X68387215Y-104187153D01*
X68302172Y-104028050D01*
X68234353Y-103901169D01*
X68234352Y-103901167D01*
X68234347Y-103901158D01*
X68054183Y-103631524D01*
X67848458Y-103380847D01*
X67848457Y-103380846D01*
X67848453Y-103380841D01*
X67619158Y-103151546D01*
X67368481Y-102945821D01*
X67368480Y-102945820D01*
X67368476Y-102945817D01*
X67098842Y-102765653D01*
X67098837Y-102765650D01*
X67098830Y-102765646D01*
X66812854Y-102612788D01*
X66812849Y-102612786D01*
X66513247Y-102488686D01*
X66202913Y-102394548D01*
X66202902Y-102394545D01*
X65884874Y-102331287D01*
X65884857Y-102331284D01*
X65640812Y-102307248D01*
X65562143Y-102299500D01*
X65237857Y-102299500D01*
X65165099Y-102306666D01*
X64915142Y-102331284D01*
X64915125Y-102331287D01*
X64597097Y-102394545D01*
X64597086Y-102394548D01*
X64286752Y-102488686D01*
X63987150Y-102612786D01*
X63987145Y-102612788D01*
X63701169Y-102765646D01*
X63701151Y-102765657D01*
X63431532Y-102945811D01*
X63431518Y-102945821D01*
X63180841Y-103151546D01*
X62951546Y-103380841D01*
X62745821Y-103631518D01*
X62745810Y-103631532D01*
X62727602Y-103658784D01*
X62673989Y-103703589D01*
X62604664Y-103712296D01*
X62541637Y-103682141D01*
X62504918Y-103622698D01*
X62500500Y-103589893D01*
X62500500Y-99321153D01*
X96199500Y-99321153D01*
X96199500Y-99478846D01*
X96230261Y-99633489D01*
X96230264Y-99633501D01*
X96290602Y-99779172D01*
X96290609Y-99779185D01*
X96378210Y-99910288D01*
X96378213Y-99910292D01*
X96380240Y-99912319D01*
X96380962Y-99913642D01*
X96382076Y-99914999D01*
X96381818Y-99915210D01*
X96413725Y-99973642D01*
X96408741Y-100043334D01*
X96382001Y-100084939D01*
X96382076Y-100085001D01*
X96381552Y-100085639D01*
X96380240Y-100087681D01*
X96378213Y-100089707D01*
X96378210Y-100089711D01*
X96290609Y-100220814D01*
X96290602Y-100220827D01*
X96230264Y-100366498D01*
X96230261Y-100366510D01*
X96199500Y-100521153D01*
X96199500Y-100678846D01*
X96230261Y-100833489D01*
X96230264Y-100833501D01*
X96290602Y-100979172D01*
X96290609Y-100979185D01*
X96378210Y-101110288D01*
X96378213Y-101110292D01*
X96489707Y-101221786D01*
X96489711Y-101221789D01*
X96620814Y-101309390D01*
X96620827Y-101309397D01*
X96766498Y-101369735D01*
X96766503Y-101369737D01*
X96918644Y-101400000D01*
X96921153Y-101400499D01*
X96921156Y-101400500D01*
X96921158Y-101400500D01*
X97078844Y-101400500D01*
X97078845Y-101400499D01*
X97233497Y-101369737D01*
X97379179Y-101309394D01*
X97510289Y-101221789D01*
X97621789Y-101110289D01*
X97709394Y-100979179D01*
X97769737Y-100833497D01*
X97800500Y-100678842D01*
X97800500Y-100521158D01*
X97800500Y-100521155D01*
X97800499Y-100521153D01*
X97792218Y-100479521D01*
X97769737Y-100366503D01*
X97760338Y-100343812D01*
X97709397Y-100220827D01*
X97709390Y-100220814D01*
X97621789Y-100089711D01*
X97619766Y-100087688D01*
X97619043Y-100086365D01*
X97617924Y-100085001D01*
X97618182Y-100084788D01*
X97586276Y-100026368D01*
X97591255Y-99956676D01*
X97617999Y-99915060D01*
X97617924Y-99914999D01*
X97618454Y-99914351D01*
X97619766Y-99912312D01*
X97621789Y-99910289D01*
X97709394Y-99779179D01*
X97769737Y-99633497D01*
X97794042Y-99511309D01*
X97794043Y-99511304D01*
X117499500Y-99511304D01*
X117499500Y-99688695D01*
X117534103Y-99862658D01*
X117534106Y-99862667D01*
X117601983Y-100026540D01*
X117601990Y-100026553D01*
X117700535Y-100174034D01*
X117700538Y-100174038D01*
X117825961Y-100299461D01*
X117825965Y-100299464D01*
X117973446Y-100398009D01*
X117973459Y-100398016D01*
X118064839Y-100435866D01*
X118137334Y-100465894D01*
X118137336Y-100465894D01*
X118137341Y-100465896D01*
X118311304Y-100500499D01*
X118311307Y-100500500D01*
X118352381Y-100500500D01*
X118419420Y-100520185D01*
X118465175Y-100572989D01*
X118475119Y-100642147D01*
X118455483Y-100693389D01*
X118439937Y-100716657D01*
X118401987Y-100773452D01*
X118401983Y-100773459D01*
X118334106Y-100937332D01*
X118334103Y-100937341D01*
X118299500Y-101111304D01*
X118299500Y-101288695D01*
X118334103Y-101462658D01*
X118334106Y-101462667D01*
X118401983Y-101626540D01*
X118401990Y-101626553D01*
X118500535Y-101774034D01*
X118500538Y-101774038D01*
X118625961Y-101899461D01*
X118625965Y-101899464D01*
X118773446Y-101998009D01*
X118773459Y-101998016D01*
X118896363Y-102048923D01*
X118937334Y-102065894D01*
X118937336Y-102065894D01*
X118937341Y-102065896D01*
X119111304Y-102100499D01*
X119111307Y-102100500D01*
X119111309Y-102100500D01*
X119288693Y-102100500D01*
X119288694Y-102100499D01*
X119319973Y-102094277D01*
X119406730Y-102077021D01*
X119462658Y-102065896D01*
X119462661Y-102065894D01*
X119462666Y-102065894D01*
X119626547Y-101998013D01*
X119774035Y-101899464D01*
X119899464Y-101774035D01*
X119998013Y-101626547D01*
X120065894Y-101462666D01*
X120100500Y-101288691D01*
X120100500Y-101111309D01*
X120089241Y-101054708D01*
X120095468Y-100985117D01*
X120107756Y-100961625D01*
X120193366Y-100833501D01*
X120198013Y-100826547D01*
X120265894Y-100662666D01*
X120266886Y-100657683D01*
X120300499Y-100488695D01*
X120300500Y-100488693D01*
X120300500Y-100311306D01*
X120300499Y-100311304D01*
X120265896Y-100137341D01*
X120265893Y-100137332D01*
X120198016Y-99973459D01*
X120198009Y-99973446D01*
X120107756Y-99838374D01*
X120086878Y-99771697D01*
X120089241Y-99745290D01*
X120100500Y-99688691D01*
X120100500Y-99511306D01*
X120100499Y-99511304D01*
X120065896Y-99337341D01*
X120065893Y-99337332D01*
X120059192Y-99321155D01*
X120030286Y-99251368D01*
X119998016Y-99173459D01*
X119998011Y-99173450D01*
X119994056Y-99167531D01*
X119994055Y-99167529D01*
X119899464Y-99025965D01*
X119899461Y-99025961D01*
X119774038Y-98900538D01*
X119774034Y-98900535D01*
X119626553Y-98801990D01*
X119626540Y-98801983D01*
X119462667Y-98734106D01*
X119462658Y-98734103D01*
X119288694Y-98699500D01*
X119288691Y-98699500D01*
X119111309Y-98699500D01*
X119111306Y-98699500D01*
X118937336Y-98734104D01*
X118937333Y-98734106D01*
X118847451Y-98771335D01*
X118777982Y-98778802D01*
X118752549Y-98771335D01*
X118662666Y-98734106D01*
X118662663Y-98734104D01*
X118488694Y-98699500D01*
X118488691Y-98699500D01*
X118311309Y-98699500D01*
X118311306Y-98699500D01*
X118137341Y-98734103D01*
X118137332Y-98734106D01*
X117973459Y-98801983D01*
X117973446Y-98801990D01*
X117825965Y-98900535D01*
X117825961Y-98900538D01*
X117700538Y-99025961D01*
X117700535Y-99025965D01*
X117601990Y-99173446D01*
X117601983Y-99173459D01*
X117534106Y-99337332D01*
X117534103Y-99337341D01*
X117499500Y-99511304D01*
X97794043Y-99511304D01*
X97800061Y-99481050D01*
X97800066Y-99481022D01*
X97800500Y-99478840D01*
X97800500Y-99321155D01*
X97800499Y-99321153D01*
X97786618Y-99251368D01*
X97769737Y-99166503D01*
X97734114Y-99080500D01*
X97709397Y-99020827D01*
X97709390Y-99020814D01*
X97621789Y-98889711D01*
X97621786Y-98889707D01*
X97510292Y-98778213D01*
X97510288Y-98778210D01*
X97379185Y-98690609D01*
X97379172Y-98690602D01*
X97233501Y-98630264D01*
X97233489Y-98630261D01*
X97078845Y-98599500D01*
X97078842Y-98599500D01*
X96921158Y-98599500D01*
X96921155Y-98599500D01*
X96766510Y-98630261D01*
X96766498Y-98630264D01*
X96620827Y-98690602D01*
X96620814Y-98690609D01*
X96489711Y-98778210D01*
X96489707Y-98778213D01*
X96378213Y-98889707D01*
X96378210Y-98889711D01*
X96290609Y-99020814D01*
X96290602Y-99020827D01*
X96230264Y-99166498D01*
X96230261Y-99166510D01*
X96199500Y-99321153D01*
X62500500Y-99321153D01*
X62500500Y-98423576D01*
X81084500Y-98423576D01*
X81084500Y-98576424D01*
X81124060Y-98724065D01*
X81200484Y-98856435D01*
X81308565Y-98964516D01*
X81440935Y-99040940D01*
X81588576Y-99080500D01*
X81588578Y-99080500D01*
X81741422Y-99080500D01*
X81741424Y-99080500D01*
X81889065Y-99040940D01*
X82021435Y-98964516D01*
X82129516Y-98856435D01*
X82205940Y-98724065D01*
X82245500Y-98576424D01*
X82245500Y-98423576D01*
X82205940Y-98275935D01*
X82129516Y-98143565D01*
X82034571Y-98048620D01*
X83269931Y-98048620D01*
X83269932Y-98048621D01*
X83317633Y-98080495D01*
X83317639Y-98080498D01*
X83508725Y-98159649D01*
X83508733Y-98159651D01*
X83711579Y-98199999D01*
X83711583Y-98200000D01*
X83918417Y-98200000D01*
X83918420Y-98199999D01*
X84121266Y-98159651D01*
X84121274Y-98159649D01*
X84312366Y-98080495D01*
X84360066Y-98048621D01*
X84360067Y-98048620D01*
X84163602Y-97852155D01*
X123850000Y-97852155D01*
X123850000Y-98650000D01*
X124801518Y-98650000D01*
X124790889Y-98668409D01*
X124750000Y-98821009D01*
X124750000Y-98978991D01*
X124790889Y-99131591D01*
X124801518Y-99150000D01*
X123850000Y-99150000D01*
X123850000Y-99947844D01*
X123856401Y-100007372D01*
X123856403Y-100007379D01*
X123906645Y-100142086D01*
X123906649Y-100142093D01*
X123992809Y-100257187D01*
X123992812Y-100257190D01*
X124107906Y-100343350D01*
X124107913Y-100343354D01*
X124202710Y-100378711D01*
X124258644Y-100420582D01*
X124283061Y-100486046D01*
X124268210Y-100554319D01*
X124224474Y-100600431D01*
X124131659Y-100657680D01*
X124131655Y-100657683D01*
X124007684Y-100781654D01*
X123915643Y-100930875D01*
X123915641Y-100930880D01*
X123860494Y-101097302D01*
X123860493Y-101097309D01*
X123850000Y-101200013D01*
X123850000Y-101750000D01*
X124801518Y-101750000D01*
X124790889Y-101768409D01*
X124750000Y-101921009D01*
X124750000Y-102078991D01*
X124790889Y-102231591D01*
X124801518Y-102250000D01*
X123850001Y-102250000D01*
X123850001Y-102799986D01*
X123860494Y-102902697D01*
X123915641Y-103069119D01*
X123915643Y-103069124D01*
X124007684Y-103218345D01*
X124131654Y-103342315D01*
X124280875Y-103434356D01*
X124280880Y-103434358D01*
X124447302Y-103489505D01*
X124447309Y-103489506D01*
X124550019Y-103499999D01*
X125099999Y-103499999D01*
X125100000Y-103499998D01*
X125100000Y-102548482D01*
X125118409Y-102559111D01*
X125271009Y-102600000D01*
X125428991Y-102600000D01*
X125581591Y-102559111D01*
X125600000Y-102548482D01*
X125600000Y-103499999D01*
X126149972Y-103499999D01*
X126149986Y-103499998D01*
X126252697Y-103489505D01*
X126419119Y-103434358D01*
X126419124Y-103434356D01*
X126568345Y-103342315D01*
X126692317Y-103218343D01*
X126709301Y-103190808D01*
X126761248Y-103144083D01*
X126830211Y-103132860D01*
X126887724Y-103155585D01*
X127063567Y-103283343D01*
X127162991Y-103334002D01*
X127274003Y-103390566D01*
X127274005Y-103390566D01*
X127274008Y-103390568D01*
X127380289Y-103425101D01*
X127498631Y-103463553D01*
X127731903Y-103500500D01*
X127731908Y-103500500D01*
X127968097Y-103500500D01*
X128201368Y-103463553D01*
X128214808Y-103459186D01*
X128425992Y-103390568D01*
X128636433Y-103283343D01*
X128827510Y-103144517D01*
X128994517Y-102977510D01*
X128999682Y-102970401D01*
X129055012Y-102927735D01*
X129124625Y-102921756D01*
X129186420Y-102954362D01*
X129200318Y-102970401D01*
X129205483Y-102977510D01*
X129372490Y-103144517D01*
X129563567Y-103283343D01*
X129662991Y-103334002D01*
X129774003Y-103390566D01*
X129774005Y-103390566D01*
X129774008Y-103390568D01*
X129880289Y-103425101D01*
X129998631Y-103463553D01*
X130231903Y-103500500D01*
X130231908Y-103500500D01*
X130468097Y-103500500D01*
X130701368Y-103463553D01*
X130714808Y-103459186D01*
X130925992Y-103390568D01*
X131136433Y-103283343D01*
X131327510Y-103144517D01*
X131494517Y-102977510D01*
X131633343Y-102786433D01*
X131740568Y-102575992D01*
X131813553Y-102351368D01*
X131840816Y-102179240D01*
X131850500Y-102118097D01*
X131850500Y-101881902D01*
X131813553Y-101648631D01*
X131740566Y-101424003D01*
X131682167Y-101309390D01*
X131633343Y-101213567D01*
X131494517Y-101022490D01*
X131327510Y-100855483D01*
X131136433Y-100716657D01*
X131062221Y-100678844D01*
X130925996Y-100609433D01*
X130798265Y-100567931D01*
X130740590Y-100528493D01*
X130713392Y-100464134D01*
X130725307Y-100395288D01*
X130772551Y-100343812D01*
X130798265Y-100332069D01*
X130925992Y-100290568D01*
X131136433Y-100183343D01*
X131327510Y-100044517D01*
X131494517Y-99877510D01*
X131633343Y-99686433D01*
X131740568Y-99475992D01*
X131813553Y-99251368D01*
X131840816Y-99079240D01*
X131850500Y-99018097D01*
X131850500Y-98781902D01*
X131813553Y-98548631D01*
X131740566Y-98324003D01*
X131648629Y-98143568D01*
X131633343Y-98113567D01*
X131494517Y-97922490D01*
X131424182Y-97852155D01*
X135850000Y-97852155D01*
X135850000Y-98650000D01*
X136801518Y-98650000D01*
X136790889Y-98668409D01*
X136750000Y-98821009D01*
X136750000Y-98978991D01*
X136790889Y-99131591D01*
X136801518Y-99150000D01*
X135850000Y-99150000D01*
X135850000Y-99947844D01*
X135856401Y-100007372D01*
X135856403Y-100007379D01*
X135906645Y-100142086D01*
X135906649Y-100142093D01*
X135992809Y-100257187D01*
X135992812Y-100257190D01*
X136107906Y-100343350D01*
X136107913Y-100343354D01*
X136202710Y-100378711D01*
X136258644Y-100420582D01*
X136283061Y-100486046D01*
X136268210Y-100554319D01*
X136224474Y-100600431D01*
X136131659Y-100657680D01*
X136131655Y-100657683D01*
X136007684Y-100781654D01*
X135915643Y-100930875D01*
X135915641Y-100930880D01*
X135860494Y-101097302D01*
X135860493Y-101097309D01*
X135850000Y-101200013D01*
X135850000Y-101750000D01*
X136801518Y-101750000D01*
X136790889Y-101768409D01*
X136750000Y-101921009D01*
X136750000Y-102078991D01*
X136790889Y-102231591D01*
X136801518Y-102250000D01*
X135850001Y-102250000D01*
X135850001Y-102799986D01*
X135860494Y-102902697D01*
X135915641Y-103069119D01*
X135915643Y-103069124D01*
X136007684Y-103218345D01*
X136131654Y-103342315D01*
X136280875Y-103434356D01*
X136280880Y-103434358D01*
X136447302Y-103489505D01*
X136447309Y-103489506D01*
X136550019Y-103499999D01*
X137099999Y-103499999D01*
X137100000Y-103499998D01*
X137100000Y-102548482D01*
X137118409Y-102559111D01*
X137271009Y-102600000D01*
X137428991Y-102600000D01*
X137581591Y-102559111D01*
X137600000Y-102548482D01*
X137600000Y-103499999D01*
X138149972Y-103499999D01*
X138149986Y-103499998D01*
X138252697Y-103489505D01*
X138419119Y-103434358D01*
X138419124Y-103434356D01*
X138568345Y-103342315D01*
X138692317Y-103218343D01*
X138709301Y-103190808D01*
X138761248Y-103144083D01*
X138830211Y-103132860D01*
X138887724Y-103155585D01*
X139063567Y-103283343D01*
X139162991Y-103334002D01*
X139274003Y-103390566D01*
X139274005Y-103390566D01*
X139274008Y-103390568D01*
X139380289Y-103425101D01*
X139498631Y-103463553D01*
X139731903Y-103500500D01*
X139731908Y-103500500D01*
X139968097Y-103500500D01*
X140201368Y-103463553D01*
X140214808Y-103459186D01*
X140425992Y-103390568D01*
X140636433Y-103283343D01*
X140827510Y-103144517D01*
X140994517Y-102977510D01*
X140999682Y-102970401D01*
X141055012Y-102927735D01*
X141124625Y-102921756D01*
X141186420Y-102954362D01*
X141200318Y-102970401D01*
X141205483Y-102977510D01*
X141372490Y-103144517D01*
X141563567Y-103283343D01*
X141662991Y-103334002D01*
X141774003Y-103390566D01*
X141774005Y-103390566D01*
X141774008Y-103390568D01*
X141880289Y-103425101D01*
X141998631Y-103463553D01*
X142231903Y-103500500D01*
X142231908Y-103500500D01*
X142468097Y-103500500D01*
X142701368Y-103463553D01*
X142714808Y-103459186D01*
X142925992Y-103390568D01*
X143136433Y-103283343D01*
X143327510Y-103144517D01*
X143494517Y-102977510D01*
X143633343Y-102786433D01*
X143740568Y-102575992D01*
X143813553Y-102351368D01*
X143840816Y-102179240D01*
X143850500Y-102118097D01*
X143850500Y-101881902D01*
X143813553Y-101648631D01*
X143740566Y-101424003D01*
X143682167Y-101309390D01*
X143633343Y-101213567D01*
X143494517Y-101022490D01*
X143327510Y-100855483D01*
X143136433Y-100716657D01*
X143062221Y-100678844D01*
X142925996Y-100609433D01*
X142798265Y-100567931D01*
X142740590Y-100528493D01*
X142713392Y-100464134D01*
X142725307Y-100395288D01*
X142772551Y-100343812D01*
X142798265Y-100332069D01*
X142925992Y-100290568D01*
X143136433Y-100183343D01*
X143327510Y-100044517D01*
X143494517Y-99877510D01*
X143633343Y-99686433D01*
X143740568Y-99475992D01*
X143813553Y-99251368D01*
X143840816Y-99079240D01*
X143850500Y-99018097D01*
X143850500Y-98781902D01*
X143813553Y-98548631D01*
X143740566Y-98324003D01*
X143648629Y-98143568D01*
X143633343Y-98113567D01*
X143494517Y-97922490D01*
X143327510Y-97755483D01*
X143136433Y-97616657D01*
X142925996Y-97509433D01*
X142701368Y-97436446D01*
X142468097Y-97399500D01*
X142468092Y-97399500D01*
X142231908Y-97399500D01*
X142231903Y-97399500D01*
X141998631Y-97436446D01*
X141774003Y-97509433D01*
X141563566Y-97616657D01*
X141467438Y-97686499D01*
X141372490Y-97755483D01*
X141372488Y-97755485D01*
X141372487Y-97755485D01*
X141205482Y-97922490D01*
X141200315Y-97929603D01*
X141144983Y-97972266D01*
X141075370Y-97978242D01*
X141013576Y-97945634D01*
X140999685Y-97929603D01*
X140994517Y-97922490D01*
X140827512Y-97755485D01*
X140827510Y-97755483D01*
X140636433Y-97616657D01*
X140425996Y-97509433D01*
X140201368Y-97436446D01*
X139968097Y-97399500D01*
X139968092Y-97399500D01*
X139731908Y-97399500D01*
X139731903Y-97399500D01*
X139498631Y-97436446D01*
X139274003Y-97509433D01*
X139063564Y-97616658D01*
X138967435Y-97686499D01*
X138901629Y-97709978D01*
X138833575Y-97694152D01*
X138795285Y-97660491D01*
X138707190Y-97542812D01*
X138707187Y-97542809D01*
X138592093Y-97456649D01*
X138592086Y-97456645D01*
X138457379Y-97406403D01*
X138457372Y-97406401D01*
X138397844Y-97400000D01*
X137600000Y-97400000D01*
X137600000Y-98351517D01*
X137581591Y-98340889D01*
X137428991Y-98300000D01*
X137271009Y-98300000D01*
X137118409Y-98340889D01*
X137100000Y-98351517D01*
X137100000Y-97400000D01*
X136302155Y-97400000D01*
X136242627Y-97406401D01*
X136242620Y-97406403D01*
X136107913Y-97456645D01*
X136107906Y-97456649D01*
X135992812Y-97542809D01*
X135992809Y-97542812D01*
X135906649Y-97657906D01*
X135906645Y-97657913D01*
X135856403Y-97792620D01*
X135856401Y-97792627D01*
X135850000Y-97852155D01*
X131424182Y-97852155D01*
X131327510Y-97755483D01*
X131136433Y-97616657D01*
X130925996Y-97509433D01*
X130701368Y-97436446D01*
X130468097Y-97399500D01*
X130468092Y-97399500D01*
X130231908Y-97399500D01*
X130231903Y-97399500D01*
X129998631Y-97436446D01*
X129774003Y-97509433D01*
X129563566Y-97616657D01*
X129467438Y-97686499D01*
X129372490Y-97755483D01*
X129372488Y-97755485D01*
X129372487Y-97755485D01*
X129205482Y-97922490D01*
X129200315Y-97929603D01*
X129144983Y-97972266D01*
X129075370Y-97978242D01*
X129013576Y-97945634D01*
X128999685Y-97929603D01*
X128994517Y-97922490D01*
X128827512Y-97755485D01*
X128827510Y-97755483D01*
X128636433Y-97616657D01*
X128425996Y-97509433D01*
X128201368Y-97436446D01*
X127968097Y-97399500D01*
X127968092Y-97399500D01*
X127731908Y-97399500D01*
X127731903Y-97399500D01*
X127498631Y-97436446D01*
X127274003Y-97509433D01*
X127063564Y-97616658D01*
X126967435Y-97686499D01*
X126901629Y-97709978D01*
X126833575Y-97694152D01*
X126795285Y-97660491D01*
X126707190Y-97542812D01*
X126707187Y-97542809D01*
X126592093Y-97456649D01*
X126592086Y-97456645D01*
X126457379Y-97406403D01*
X126457372Y-97406401D01*
X126397844Y-97400000D01*
X125600000Y-97400000D01*
X125600000Y-98351517D01*
X125581591Y-98340889D01*
X125428991Y-98300000D01*
X125271009Y-98300000D01*
X125118409Y-98340889D01*
X125100000Y-98351517D01*
X125100000Y-97400000D01*
X124302155Y-97400000D01*
X124242627Y-97406401D01*
X124242620Y-97406403D01*
X124107913Y-97456645D01*
X124107906Y-97456649D01*
X123992812Y-97542809D01*
X123992809Y-97542812D01*
X123906649Y-97657906D01*
X123906645Y-97657913D01*
X123856403Y-97792620D01*
X123856401Y-97792627D01*
X123850000Y-97852155D01*
X84163602Y-97852155D01*
X83815001Y-97503554D01*
X83815000Y-97503554D01*
X83269931Y-98048620D01*
X82034571Y-98048620D01*
X82021435Y-98035484D01*
X81922289Y-97978242D01*
X81889067Y-97959061D01*
X81889066Y-97959060D01*
X81889065Y-97959060D01*
X81741424Y-97919500D01*
X81588576Y-97919500D01*
X81440935Y-97959060D01*
X81440932Y-97959061D01*
X81308568Y-98035482D01*
X81308562Y-98035486D01*
X81200486Y-98143562D01*
X81200482Y-98143568D01*
X81124061Y-98275932D01*
X81124060Y-98275935D01*
X81084500Y-98423576D01*
X62500500Y-98423576D01*
X62500500Y-98048620D01*
X78969931Y-98048620D01*
X78969932Y-98048621D01*
X79017633Y-98080495D01*
X79017639Y-98080498D01*
X79208725Y-98159649D01*
X79208733Y-98159651D01*
X79411579Y-98199999D01*
X79411583Y-98200000D01*
X79618417Y-98200000D01*
X79618420Y-98199999D01*
X79821266Y-98159651D01*
X79821274Y-98159649D01*
X80012366Y-98080495D01*
X80060066Y-98048621D01*
X80060067Y-98048620D01*
X79515001Y-97503554D01*
X79515000Y-97503554D01*
X78969931Y-98048620D01*
X62500500Y-98048620D01*
X62500500Y-97046579D01*
X78465000Y-97046579D01*
X78465000Y-97253420D01*
X78505348Y-97456266D01*
X78505350Y-97456274D01*
X78584500Y-97647359D01*
X78616377Y-97695067D01*
X78616378Y-97695067D01*
X79161446Y-97150000D01*
X79115368Y-97103922D01*
X79165000Y-97103922D01*
X79165000Y-97196078D01*
X79188852Y-97285095D01*
X79234930Y-97364905D01*
X79300095Y-97430070D01*
X79379905Y-97476148D01*
X79468922Y-97500000D01*
X79561078Y-97500000D01*
X79650095Y-97476148D01*
X79729905Y-97430070D01*
X79795070Y-97364905D01*
X79841148Y-97285095D01*
X79865000Y-97196078D01*
X79865000Y-97149999D01*
X79868554Y-97149999D01*
X79868554Y-97150001D01*
X80413620Y-97695067D01*
X80413621Y-97695066D01*
X80445495Y-97647366D01*
X80524649Y-97456274D01*
X80524651Y-97456266D01*
X80564999Y-97253420D01*
X80565000Y-97253417D01*
X80565000Y-97046583D01*
X80564999Y-97046579D01*
X80524651Y-96843733D01*
X80524649Y-96843725D01*
X80445498Y-96652639D01*
X80445495Y-96652633D01*
X80413621Y-96604932D01*
X80413620Y-96604931D01*
X79868554Y-97149999D01*
X79865000Y-97149999D01*
X79865000Y-97103922D01*
X79841148Y-97014905D01*
X79795070Y-96935095D01*
X79729905Y-96869930D01*
X79650095Y-96823852D01*
X79561078Y-96800000D01*
X79468922Y-96800000D01*
X79379905Y-96823852D01*
X79300095Y-96869930D01*
X79234930Y-96935095D01*
X79188852Y-97014905D01*
X79165000Y-97103922D01*
X79115368Y-97103922D01*
X78616378Y-96604932D01*
X78616377Y-96604932D01*
X78584505Y-96652631D01*
X78584500Y-96652641D01*
X78505350Y-96843725D01*
X78505348Y-96843733D01*
X78465000Y-97046579D01*
X62500500Y-97046579D01*
X62500500Y-96251377D01*
X78969932Y-96251377D01*
X78969932Y-96251378D01*
X79515000Y-96796446D01*
X79515001Y-96796446D01*
X80060067Y-96251378D01*
X80060067Y-96251377D01*
X80012359Y-96219500D01*
X79821274Y-96140350D01*
X79821266Y-96140348D01*
X79618420Y-96100000D01*
X79411579Y-96100000D01*
X79208733Y-96140348D01*
X79208725Y-96140350D01*
X79017641Y-96219500D01*
X79017631Y-96219505D01*
X78969932Y-96251377D01*
X62500500Y-96251377D01*
X62500500Y-95911304D01*
X82599500Y-95911304D01*
X82599500Y-96088695D01*
X82634103Y-96262658D01*
X82634106Y-96262667D01*
X82701983Y-96426540D01*
X82701990Y-96426553D01*
X82800535Y-96574034D01*
X82800538Y-96574038D01*
X82824343Y-96597843D01*
X82857828Y-96659166D01*
X82852844Y-96728858D01*
X82851223Y-96732976D01*
X82805351Y-96843721D01*
X82805348Y-96843733D01*
X82765000Y-97046579D01*
X82765000Y-97253420D01*
X82805348Y-97456266D01*
X82805350Y-97456274D01*
X82884500Y-97647359D01*
X82916377Y-97695067D01*
X83465000Y-97146444D01*
X83465000Y-97196078D01*
X83488852Y-97285095D01*
X83534930Y-97364905D01*
X83600095Y-97430070D01*
X83679905Y-97476148D01*
X83768922Y-97500000D01*
X83861078Y-97500000D01*
X83950095Y-97476148D01*
X84029905Y-97430070D01*
X84095070Y-97364905D01*
X84141148Y-97285095D01*
X84165000Y-97196078D01*
X84165000Y-97149999D01*
X84168554Y-97149999D01*
X84168554Y-97150001D01*
X84713620Y-97695067D01*
X84713621Y-97695066D01*
X84745495Y-97647366D01*
X84824649Y-97456274D01*
X84824651Y-97456266D01*
X84864999Y-97253420D01*
X84865000Y-97253417D01*
X84865000Y-97046583D01*
X84864999Y-97046579D01*
X84824651Y-96843733D01*
X84824649Y-96843725D01*
X84745498Y-96652639D01*
X84745495Y-96652633D01*
X84713621Y-96604932D01*
X84713620Y-96604931D01*
X84168554Y-97149999D01*
X84165000Y-97149999D01*
X84165000Y-97103922D01*
X84141148Y-97014905D01*
X84095070Y-96935095D01*
X84029905Y-96869930D01*
X83950095Y-96823852D01*
X83897918Y-96809871D01*
X83926540Y-96798016D01*
X83926540Y-96798015D01*
X83926547Y-96798013D01*
X84074035Y-96699464D01*
X84199464Y-96574035D01*
X84298013Y-96426547D01*
X84365894Y-96262666D01*
X84368140Y-96251378D01*
X84400499Y-96088695D01*
X84400500Y-96088693D01*
X84400500Y-95911306D01*
X84400499Y-95911304D01*
X84365896Y-95737341D01*
X84365893Y-95737332D01*
X84298016Y-95573459D01*
X84298009Y-95573446D01*
X84199464Y-95425965D01*
X84199461Y-95425961D01*
X84074038Y-95300538D01*
X84074034Y-95300535D01*
X83926553Y-95201990D01*
X83926540Y-95201983D01*
X83762667Y-95134106D01*
X83762658Y-95134103D01*
X83588694Y-95099500D01*
X83588691Y-95099500D01*
X83411309Y-95099500D01*
X83411306Y-95099500D01*
X83237341Y-95134103D01*
X83237332Y-95134106D01*
X83073459Y-95201983D01*
X83073446Y-95201990D01*
X82925965Y-95300535D01*
X82925961Y-95300538D01*
X82800538Y-95425961D01*
X82800535Y-95425965D01*
X82701990Y-95573446D01*
X82701983Y-95573459D01*
X82634106Y-95737332D01*
X82634103Y-95737341D01*
X82599500Y-95911304D01*
X62500500Y-95911304D01*
X62500500Y-93411304D01*
X72849500Y-93411304D01*
X72849500Y-93588695D01*
X72884103Y-93762658D01*
X72884106Y-93762667D01*
X72951983Y-93926540D01*
X72951990Y-93926553D01*
X73050535Y-94074034D01*
X73050538Y-94074038D01*
X73175961Y-94199461D01*
X73175965Y-94199464D01*
X73323446Y-94298009D01*
X73323459Y-94298016D01*
X73446363Y-94348923D01*
X73487334Y-94365894D01*
X73487336Y-94365894D01*
X73487341Y-94365896D01*
X73661304Y-94400499D01*
X73661307Y-94400500D01*
X73661309Y-94400500D01*
X73838693Y-94400500D01*
X73838694Y-94400499D01*
X73920581Y-94384211D01*
X74012658Y-94365896D01*
X74012661Y-94365894D01*
X74012666Y-94365894D01*
X74176547Y-94298013D01*
X74324035Y-94199464D01*
X74449464Y-94074035D01*
X74548013Y-93926547D01*
X74615894Y-93762666D01*
X74619288Y-93745606D01*
X74650499Y-93588695D01*
X74650500Y-93588693D01*
X74650500Y-93411306D01*
X74650499Y-93411304D01*
X77599500Y-93411304D01*
X77599500Y-93588695D01*
X77634103Y-93762658D01*
X77634106Y-93762667D01*
X77701983Y-93926540D01*
X77701990Y-93926553D01*
X77800535Y-94074034D01*
X77800538Y-94074038D01*
X77925961Y-94199461D01*
X77925965Y-94199464D01*
X78073446Y-94298009D01*
X78073459Y-94298016D01*
X78196363Y-94348923D01*
X78237334Y-94365894D01*
X78237336Y-94365894D01*
X78237341Y-94365896D01*
X78411304Y-94400499D01*
X78411307Y-94400500D01*
X78411309Y-94400500D01*
X78588693Y-94400500D01*
X78588694Y-94400499D01*
X78762666Y-94365894D01*
X78775917Y-94360404D01*
X78845386Y-94352936D01*
X78907866Y-94384211D01*
X78937931Y-94427514D01*
X78977876Y-94523952D01*
X78977883Y-94523965D01*
X79054540Y-94638689D01*
X79054543Y-94638693D01*
X79152109Y-94736259D01*
X79152113Y-94736262D01*
X79266837Y-94812919D01*
X79266850Y-94812926D01*
X79394322Y-94865726D01*
X79394327Y-94865728D01*
X79394331Y-94865728D01*
X79394332Y-94865729D01*
X79529659Y-94892648D01*
X79529662Y-94892648D01*
X79541055Y-94892648D01*
X79608094Y-94912333D01*
X79628731Y-94928962D01*
X79693880Y-94994111D01*
X79693884Y-94994115D01*
X79808607Y-95070771D01*
X79808620Y-95070778D01*
X79936092Y-95123578D01*
X79936097Y-95123580D01*
X79936101Y-95123580D01*
X79936102Y-95123581D01*
X80071429Y-95150500D01*
X80071432Y-95150500D01*
X80209420Y-95150500D01*
X80300466Y-95132389D01*
X80344753Y-95123580D01*
X80472236Y-95070775D01*
X80586967Y-94994114D01*
X80684539Y-94896542D01*
X80761200Y-94781811D01*
X80814005Y-94654328D01*
X80826451Y-94591753D01*
X80842074Y-94561886D01*
X80857073Y-94531710D01*
X80858217Y-94531026D01*
X80858835Y-94529846D01*
X80888105Y-94513177D01*
X80917060Y-94495886D01*
X80918393Y-94495929D01*
X80919550Y-94495271D01*
X80953196Y-94497074D01*
X80986892Y-94498182D01*
X80987988Y-94498938D01*
X80989320Y-94499010D01*
X81016680Y-94518739D01*
X81044398Y-94537867D01*
X81045293Y-94539371D01*
X81045992Y-94539875D01*
X81062494Y-94568169D01*
X81062632Y-94568500D01*
X81113560Y-94691451D01*
X81114654Y-94693088D01*
X81117715Y-94700419D01*
X81120926Y-94729509D01*
X81126888Y-94758160D01*
X81124967Y-94766124D01*
X81125381Y-94769866D01*
X81122827Y-94775004D01*
X81117850Y-94795649D01*
X81076421Y-94895667D01*
X81076418Y-94895677D01*
X81049500Y-95031004D01*
X81049500Y-95031007D01*
X81049500Y-95168993D01*
X81049500Y-95168995D01*
X81049499Y-95168995D01*
X81076418Y-95304322D01*
X81076421Y-95304332D01*
X81129221Y-95431804D01*
X81129228Y-95431817D01*
X81205885Y-95546541D01*
X81205888Y-95546545D01*
X81303454Y-95644111D01*
X81303458Y-95644114D01*
X81418182Y-95720771D01*
X81418195Y-95720778D01*
X81545667Y-95773578D01*
X81545672Y-95773580D01*
X81545676Y-95773580D01*
X81545677Y-95773581D01*
X81681004Y-95800500D01*
X81681007Y-95800500D01*
X81818995Y-95800500D01*
X81903956Y-95783600D01*
X81903956Y-95783599D01*
X81954328Y-95773580D01*
X82081811Y-95720775D01*
X82196542Y-95644114D01*
X82294114Y-95546542D01*
X82370775Y-95431811D01*
X82373197Y-95425965D01*
X82423578Y-95304332D01*
X82423580Y-95304328D01*
X82432389Y-95260041D01*
X82450500Y-95168995D01*
X82450500Y-95031004D01*
X82423581Y-94895677D01*
X82423580Y-94895676D01*
X82423580Y-94895672D01*
X82423578Y-94895667D01*
X82368444Y-94762560D01*
X82370026Y-94761904D01*
X82357444Y-94701505D01*
X82366482Y-94663995D01*
X82407915Y-94563968D01*
X82421449Y-94495929D01*
X82434835Y-94428635D01*
X82434835Y-94290644D01*
X82407916Y-94155317D01*
X82407915Y-94155316D01*
X82407915Y-94155312D01*
X82392538Y-94118189D01*
X82355113Y-94027835D01*
X82355106Y-94027822D01*
X82278449Y-93913098D01*
X82278446Y-93913094D01*
X82180880Y-93815528D01*
X82180876Y-93815525D01*
X82066152Y-93738868D01*
X82066139Y-93738861D01*
X81938667Y-93686061D01*
X81938657Y-93686058D01*
X81803330Y-93659140D01*
X81803328Y-93659140D01*
X81665342Y-93659140D01*
X81665340Y-93659140D01*
X81530012Y-93686058D01*
X81530002Y-93686061D01*
X81402530Y-93738861D01*
X81402517Y-93738868D01*
X81287793Y-93815525D01*
X81287789Y-93815528D01*
X81190223Y-93913094D01*
X81190220Y-93913098D01*
X81113563Y-94027822D01*
X81113556Y-94027835D01*
X81060756Y-94155307D01*
X81060753Y-94155317D01*
X81048308Y-94217884D01*
X81015923Y-94279795D01*
X80955207Y-94314369D01*
X80885437Y-94310629D01*
X80828766Y-94269762D01*
X80812130Y-94241145D01*
X80761201Y-94118191D01*
X80761196Y-94118182D01*
X80684539Y-94003458D01*
X80684536Y-94003454D01*
X80586970Y-93905888D01*
X80586966Y-93905885D01*
X80472242Y-93829228D01*
X80472229Y-93829221D01*
X80344757Y-93776421D01*
X80344747Y-93776418D01*
X80209420Y-93749500D01*
X80209418Y-93749500D01*
X80198025Y-93749500D01*
X80130986Y-93729815D01*
X80110348Y-93713185D01*
X80045197Y-93648034D01*
X80045196Y-93648033D01*
X80045195Y-93648032D01*
X79930472Y-93571376D01*
X79930462Y-93571371D01*
X79896871Y-93557457D01*
X79842467Y-93513615D01*
X79820403Y-93447321D01*
X79837683Y-93379622D01*
X79888820Y-93332012D01*
X79896872Y-93328335D01*
X80012364Y-93280496D01*
X80012365Y-93280496D01*
X80060066Y-93248621D01*
X80060067Y-93248620D01*
X83269931Y-93248620D01*
X83269932Y-93248621D01*
X83317633Y-93280495D01*
X83317639Y-93280498D01*
X83508725Y-93359649D01*
X83508733Y-93359651D01*
X83711579Y-93399999D01*
X83711583Y-93400000D01*
X83918417Y-93400000D01*
X83918420Y-93399999D01*
X84121266Y-93359651D01*
X84121274Y-93359649D01*
X84312366Y-93280495D01*
X84360066Y-93248621D01*
X84360067Y-93248620D01*
X83815001Y-92703554D01*
X83815000Y-92703554D01*
X83269931Y-93248620D01*
X80060067Y-93248620D01*
X79511446Y-92700000D01*
X79561078Y-92700000D01*
X79650095Y-92676148D01*
X79729905Y-92630070D01*
X79795070Y-92564905D01*
X79841148Y-92485095D01*
X79865000Y-92396078D01*
X79865000Y-92349999D01*
X79868554Y-92349999D01*
X79868554Y-92350001D01*
X80413620Y-92895067D01*
X80413621Y-92895066D01*
X80445495Y-92847366D01*
X80524649Y-92656274D01*
X80524651Y-92656266D01*
X80564999Y-92453420D01*
X80565000Y-92453417D01*
X80565000Y-92246583D01*
X80564999Y-92246579D01*
X82765000Y-92246579D01*
X82765000Y-92453420D01*
X82805348Y-92656266D01*
X82805350Y-92656274D01*
X82884500Y-92847359D01*
X82916377Y-92895067D01*
X82916378Y-92895067D01*
X83461446Y-92350000D01*
X83415368Y-92303922D01*
X83465000Y-92303922D01*
X83465000Y-92396078D01*
X83488852Y-92485095D01*
X83534930Y-92564905D01*
X83600095Y-92630070D01*
X83679905Y-92676148D01*
X83768922Y-92700000D01*
X83861078Y-92700000D01*
X83950095Y-92676148D01*
X84029905Y-92630070D01*
X84095070Y-92564905D01*
X84141148Y-92485095D01*
X84165000Y-92396078D01*
X84165000Y-92349999D01*
X84168554Y-92349999D01*
X84168554Y-92350001D01*
X84713620Y-92895067D01*
X84713621Y-92895066D01*
X84745495Y-92847366D01*
X84824649Y-92656274D01*
X84824651Y-92656266D01*
X84864999Y-92453420D01*
X84865000Y-92453417D01*
X84865000Y-92246583D01*
X84864999Y-92246579D01*
X84824651Y-92043733D01*
X84824649Y-92043725D01*
X84745498Y-91852639D01*
X84745495Y-91852633D01*
X84713621Y-91804932D01*
X84713620Y-91804931D01*
X84168554Y-92349999D01*
X84165000Y-92349999D01*
X84165000Y-92303922D01*
X84141148Y-92214905D01*
X84095070Y-92135095D01*
X84029905Y-92069930D01*
X83950095Y-92023852D01*
X83861078Y-92000000D01*
X83768922Y-92000000D01*
X83679905Y-92023852D01*
X83600095Y-92069930D01*
X83534930Y-92135095D01*
X83488852Y-92214905D01*
X83465000Y-92303922D01*
X83415368Y-92303922D01*
X82916378Y-91804932D01*
X82916377Y-91804932D01*
X82884505Y-91852631D01*
X82884500Y-91852641D01*
X82805350Y-92043725D01*
X82805348Y-92043733D01*
X82765000Y-92246579D01*
X80564999Y-92246579D01*
X80524651Y-92043733D01*
X80524649Y-92043725D01*
X80445498Y-91852639D01*
X80445495Y-91852633D01*
X80413621Y-91804932D01*
X80413620Y-91804931D01*
X79868554Y-92349999D01*
X79865000Y-92349999D01*
X79865000Y-92303922D01*
X79841148Y-92214905D01*
X79795070Y-92135095D01*
X79729905Y-92069930D01*
X79650095Y-92023852D01*
X79561078Y-92000000D01*
X79468922Y-92000000D01*
X79379905Y-92023852D01*
X79300095Y-92069930D01*
X79234930Y-92135095D01*
X79188852Y-92214905D01*
X79165000Y-92303922D01*
X79165000Y-92353554D01*
X78616378Y-91804932D01*
X78616377Y-91804932D01*
X78584505Y-91852631D01*
X78584500Y-91852641D01*
X78505350Y-92043725D01*
X78505348Y-92043733D01*
X78465000Y-92246579D01*
X78465000Y-92453415D01*
X78466718Y-92462055D01*
X78460487Y-92531646D01*
X78417621Y-92586821D01*
X78369291Y-92607857D01*
X78237340Y-92634104D01*
X78237332Y-92634106D01*
X78073459Y-92701983D01*
X78073446Y-92701990D01*
X77925965Y-92800535D01*
X77925961Y-92800538D01*
X77800538Y-92925961D01*
X77800535Y-92925965D01*
X77701990Y-93073446D01*
X77701983Y-93073459D01*
X77634106Y-93237332D01*
X77634103Y-93237341D01*
X77599500Y-93411304D01*
X74650499Y-93411304D01*
X74615896Y-93237341D01*
X74615893Y-93237332D01*
X74548016Y-93073459D01*
X74548009Y-93073446D01*
X74449464Y-92925965D01*
X74449461Y-92925961D01*
X74324038Y-92800538D01*
X74324034Y-92800535D01*
X74176553Y-92701990D01*
X74176540Y-92701983D01*
X74012667Y-92634106D01*
X74012658Y-92634103D01*
X73838694Y-92599500D01*
X73838691Y-92599500D01*
X73661309Y-92599500D01*
X73661306Y-92599500D01*
X73487341Y-92634103D01*
X73487332Y-92634106D01*
X73323459Y-92701983D01*
X73323446Y-92701990D01*
X73175965Y-92800535D01*
X73175961Y-92800538D01*
X73050538Y-92925961D01*
X73050535Y-92925965D01*
X72951990Y-93073446D01*
X72951983Y-93073459D01*
X72884106Y-93237332D01*
X72884103Y-93237341D01*
X72849500Y-93411304D01*
X62500500Y-93411304D01*
X62500500Y-91451377D01*
X78969932Y-91451377D01*
X78969932Y-91451378D01*
X79515000Y-91996446D01*
X79515001Y-91996446D01*
X80060067Y-91451378D01*
X80060067Y-91451377D01*
X80012359Y-91419500D01*
X79821274Y-91340350D01*
X79821266Y-91340348D01*
X79618420Y-91300000D01*
X79411579Y-91300000D01*
X79208733Y-91340348D01*
X79208725Y-91340350D01*
X79017641Y-91419500D01*
X79017631Y-91419505D01*
X78969932Y-91451377D01*
X62500500Y-91451377D01*
X62500500Y-90712138D01*
X80874500Y-90712138D01*
X80874500Y-91287861D01*
X80904876Y-91440572D01*
X80904878Y-91440580D01*
X80964466Y-91584439D01*
X80964471Y-91584448D01*
X81050977Y-91713913D01*
X81050980Y-91713917D01*
X81161082Y-91824019D01*
X81161086Y-91824022D01*
X81290551Y-91910528D01*
X81290557Y-91910531D01*
X81290558Y-91910532D01*
X81434420Y-91970122D01*
X81566762Y-91996446D01*
X81587138Y-92000499D01*
X81587142Y-92000500D01*
X81587143Y-92000500D01*
X81742858Y-92000500D01*
X81742859Y-92000499D01*
X81895580Y-91970122D01*
X82039442Y-91910532D01*
X82168914Y-91824022D01*
X82279022Y-91713914D01*
X82365532Y-91584442D01*
X82408744Y-91480119D01*
X82420650Y-91451377D01*
X83269932Y-91451377D01*
X83269932Y-91451378D01*
X83815000Y-91996446D01*
X83815001Y-91996446D01*
X84360067Y-91451378D01*
X84360067Y-91451377D01*
X84312359Y-91419500D01*
X84121274Y-91340350D01*
X84121266Y-91340348D01*
X83918420Y-91300000D01*
X83711579Y-91300000D01*
X83508733Y-91340348D01*
X83508725Y-91340350D01*
X83317641Y-91419500D01*
X83317631Y-91419505D01*
X83269932Y-91451377D01*
X82420650Y-91451377D01*
X82421164Y-91450136D01*
X82421164Y-91450135D01*
X82425120Y-91440584D01*
X82425122Y-91440580D01*
X82455500Y-91287857D01*
X82455500Y-90712143D01*
X82425122Y-90559420D01*
X82365532Y-90415558D01*
X82365531Y-90415557D01*
X82365528Y-90415551D01*
X82279022Y-90286086D01*
X82279019Y-90286082D01*
X82168917Y-90175980D01*
X82168913Y-90175977D01*
X82039448Y-90089471D01*
X82039439Y-90089466D01*
X81895580Y-90029878D01*
X81895572Y-90029876D01*
X81742861Y-89999500D01*
X81742857Y-89999500D01*
X81587143Y-89999500D01*
X81587138Y-89999500D01*
X81434427Y-90029876D01*
X81434419Y-90029878D01*
X81290560Y-90089466D01*
X81290551Y-90089471D01*
X81161086Y-90175977D01*
X81161082Y-90175980D01*
X81050980Y-90286082D01*
X81050977Y-90286086D01*
X80964471Y-90415551D01*
X80964466Y-90415560D01*
X80904878Y-90559419D01*
X80904876Y-90559427D01*
X80874500Y-90712138D01*
X62500500Y-90712138D01*
X62500500Y-88721153D01*
X109199500Y-88721153D01*
X109199500Y-88878846D01*
X109230261Y-89033489D01*
X109230264Y-89033501D01*
X109290602Y-89179172D01*
X109290609Y-89179185D01*
X109378210Y-89310288D01*
X109378213Y-89310292D01*
X109380240Y-89312319D01*
X109380962Y-89313642D01*
X109382076Y-89314999D01*
X109381818Y-89315210D01*
X109413725Y-89373642D01*
X109408741Y-89443334D01*
X109382001Y-89484939D01*
X109382076Y-89485001D01*
X109381552Y-89485639D01*
X109380240Y-89487681D01*
X109378213Y-89489707D01*
X109378210Y-89489711D01*
X109290609Y-89620814D01*
X109290602Y-89620827D01*
X109230264Y-89766498D01*
X109230261Y-89766510D01*
X109199500Y-89921153D01*
X109199500Y-90078846D01*
X109230261Y-90233489D01*
X109230264Y-90233501D01*
X109290602Y-90379172D01*
X109290609Y-90379185D01*
X109378210Y-90510288D01*
X109378213Y-90510292D01*
X109489707Y-90621786D01*
X109489711Y-90621789D01*
X109620814Y-90709390D01*
X109620827Y-90709397D01*
X109718853Y-90750000D01*
X109766503Y-90769737D01*
X109921153Y-90800499D01*
X109921156Y-90800500D01*
X109921158Y-90800500D01*
X110078844Y-90800500D01*
X110078845Y-90800499D01*
X110233497Y-90769737D01*
X110372545Y-90712142D01*
X110379172Y-90709397D01*
X110379172Y-90709396D01*
X110379179Y-90709394D01*
X110510289Y-90621789D01*
X110621789Y-90510289D01*
X110709394Y-90379179D01*
X110711524Y-90374038D01*
X110769735Y-90233501D01*
X110769737Y-90233497D01*
X110800500Y-90078842D01*
X110800500Y-89921158D01*
X110800500Y-89921155D01*
X110800499Y-89921153D01*
X110794042Y-89888691D01*
X110769737Y-89766503D01*
X110746873Y-89711304D01*
X116099500Y-89711304D01*
X116099500Y-89888695D01*
X116134103Y-90062658D01*
X116134106Y-90062667D01*
X116201983Y-90226540D01*
X116201990Y-90226553D01*
X116300535Y-90374034D01*
X116300538Y-90374038D01*
X116425959Y-90499459D01*
X116430669Y-90503324D01*
X116429094Y-90505242D01*
X116466924Y-90550497D01*
X116475638Y-90619821D01*
X116445490Y-90682852D01*
X116430207Y-90696104D01*
X116430673Y-90696672D01*
X116425961Y-90700538D01*
X116300538Y-90825961D01*
X116300535Y-90825965D01*
X116201990Y-90973446D01*
X116201983Y-90973459D01*
X116134106Y-91137332D01*
X116134103Y-91137341D01*
X116099500Y-91311304D01*
X116099500Y-91488695D01*
X116134103Y-91662658D01*
X116134106Y-91662667D01*
X116201983Y-91826540D01*
X116201990Y-91826553D01*
X116300535Y-91974034D01*
X116300538Y-91974038D01*
X116425961Y-92099461D01*
X116425965Y-92099464D01*
X116573446Y-92198009D01*
X116573459Y-92198016D01*
X116614234Y-92214905D01*
X116737334Y-92265894D01*
X116737336Y-92265894D01*
X116737341Y-92265896D01*
X116911304Y-92300499D01*
X116911307Y-92300500D01*
X116911309Y-92300500D01*
X117088693Y-92300500D01*
X117088694Y-92300499D01*
X117174950Y-92283342D01*
X117262658Y-92265896D01*
X117262661Y-92265894D01*
X117262666Y-92265894D01*
X117426547Y-92198013D01*
X117574035Y-92099464D01*
X117699464Y-91974035D01*
X117798013Y-91826547D01*
X117865894Y-91662666D01*
X117881455Y-91584439D01*
X117900499Y-91488695D01*
X117900500Y-91488693D01*
X117900500Y-91414877D01*
X117920185Y-91347838D01*
X117955609Y-91311775D01*
X117974035Y-91299464D01*
X118099464Y-91174035D01*
X118116339Y-91148779D01*
X118129057Y-91129747D01*
X118198009Y-91026553D01*
X118198009Y-91026552D01*
X118198013Y-91026547D01*
X118265894Y-90862666D01*
X118273195Y-90825965D01*
X118300499Y-90688695D01*
X118300500Y-90688693D01*
X118300500Y-90511306D01*
X118300499Y-90511304D01*
X118265896Y-90337341D01*
X118265893Y-90337332D01*
X118198016Y-90173459D01*
X118198009Y-90173446D01*
X118099464Y-90025965D01*
X118099461Y-90025961D01*
X117974036Y-89900536D01*
X117955607Y-89888222D01*
X117910803Y-89834608D01*
X117900500Y-89785121D01*
X117900500Y-89711306D01*
X117900499Y-89711304D01*
X117865896Y-89537341D01*
X117865893Y-89537332D01*
X117865526Y-89536447D01*
X117844650Y-89486046D01*
X117798016Y-89373459D01*
X117798009Y-89373446D01*
X117699464Y-89225965D01*
X117699461Y-89225961D01*
X117574038Y-89100538D01*
X117574034Y-89100535D01*
X117426553Y-89001990D01*
X117426540Y-89001983D01*
X117262667Y-88934106D01*
X117262658Y-88934103D01*
X117088694Y-88899500D01*
X117088691Y-88899500D01*
X116911309Y-88899500D01*
X116911306Y-88899500D01*
X116737341Y-88934103D01*
X116737332Y-88934106D01*
X116573459Y-89001983D01*
X116573446Y-89001990D01*
X116425965Y-89100535D01*
X116425961Y-89100538D01*
X116300538Y-89225961D01*
X116300535Y-89225965D01*
X116201990Y-89373446D01*
X116201983Y-89373459D01*
X116134106Y-89537332D01*
X116134103Y-89537341D01*
X116099500Y-89711304D01*
X110746873Y-89711304D01*
X110724663Y-89657683D01*
X110709397Y-89620827D01*
X110709390Y-89620814D01*
X110621789Y-89489711D01*
X110619766Y-89487688D01*
X110619043Y-89486365D01*
X110617924Y-89485001D01*
X110618182Y-89484788D01*
X110586276Y-89426368D01*
X110591255Y-89356676D01*
X110617999Y-89315060D01*
X110617924Y-89314999D01*
X110618454Y-89314351D01*
X110619766Y-89312312D01*
X110621789Y-89310289D01*
X110709394Y-89179179D01*
X110769737Y-89033497D01*
X110800500Y-88878842D01*
X110800500Y-88721158D01*
X110800500Y-88721155D01*
X110800499Y-88721153D01*
X110769738Y-88566510D01*
X110769737Y-88566503D01*
X110732248Y-88475996D01*
X110709397Y-88420827D01*
X110709390Y-88420814D01*
X110621789Y-88289711D01*
X110621786Y-88289707D01*
X110510292Y-88178213D01*
X110510288Y-88178210D01*
X110379185Y-88090609D01*
X110379172Y-88090602D01*
X110233501Y-88030264D01*
X110233489Y-88030261D01*
X110078845Y-87999500D01*
X110078842Y-87999500D01*
X109921158Y-87999500D01*
X109921155Y-87999500D01*
X109766510Y-88030261D01*
X109766498Y-88030264D01*
X109620827Y-88090602D01*
X109620814Y-88090609D01*
X109489711Y-88178210D01*
X109489707Y-88178213D01*
X109378213Y-88289707D01*
X109378210Y-88289711D01*
X109290609Y-88420814D01*
X109290602Y-88420827D01*
X109230264Y-88566498D01*
X109230261Y-88566510D01*
X109199500Y-88721153D01*
X62500500Y-88721153D01*
X62500500Y-86852155D01*
X123850000Y-86852155D01*
X123850000Y-87650000D01*
X124801518Y-87650000D01*
X124790889Y-87668409D01*
X124750000Y-87821009D01*
X124750000Y-87978991D01*
X124790889Y-88131591D01*
X124801518Y-88150000D01*
X123850000Y-88150000D01*
X123850000Y-88947844D01*
X123856401Y-89007372D01*
X123856403Y-89007379D01*
X123906645Y-89142086D01*
X123906649Y-89142093D01*
X123992809Y-89257187D01*
X123992812Y-89257190D01*
X124107906Y-89343350D01*
X124107913Y-89343354D01*
X124202710Y-89378711D01*
X124258644Y-89420582D01*
X124283061Y-89486046D01*
X124268210Y-89554319D01*
X124224474Y-89600431D01*
X124131659Y-89657680D01*
X124131655Y-89657683D01*
X124007684Y-89781654D01*
X123915643Y-89930875D01*
X123915641Y-89930880D01*
X123860494Y-90097302D01*
X123860493Y-90097309D01*
X123850000Y-90200013D01*
X123850000Y-90750000D01*
X124801518Y-90750000D01*
X124790889Y-90768409D01*
X124750000Y-90921009D01*
X124750000Y-91078991D01*
X124790889Y-91231591D01*
X124801518Y-91250000D01*
X123850001Y-91250000D01*
X123850001Y-91799986D01*
X123860494Y-91902697D01*
X123915641Y-92069119D01*
X123915643Y-92069124D01*
X124007684Y-92218345D01*
X124131654Y-92342315D01*
X124280875Y-92434356D01*
X124280880Y-92434358D01*
X124447302Y-92489505D01*
X124447309Y-92489506D01*
X124550019Y-92499999D01*
X125099999Y-92499999D01*
X125100000Y-92499998D01*
X125100000Y-91548482D01*
X125118409Y-91559111D01*
X125271009Y-91600000D01*
X125428991Y-91600000D01*
X125581591Y-91559111D01*
X125600000Y-91548482D01*
X125600000Y-92499999D01*
X126149972Y-92499999D01*
X126149986Y-92499998D01*
X126252697Y-92489505D01*
X126419119Y-92434358D01*
X126419124Y-92434356D01*
X126568345Y-92342315D01*
X126692317Y-92218343D01*
X126709301Y-92190808D01*
X126761248Y-92144083D01*
X126830211Y-92132860D01*
X126887724Y-92155585D01*
X127063567Y-92283343D01*
X127097238Y-92300499D01*
X127274003Y-92390566D01*
X127274005Y-92390566D01*
X127274008Y-92390568D01*
X127394412Y-92429689D01*
X127498631Y-92463553D01*
X127731903Y-92500500D01*
X127731908Y-92500500D01*
X127968097Y-92500500D01*
X128201368Y-92463553D01*
X128232569Y-92453415D01*
X128425992Y-92390568D01*
X128636433Y-92283343D01*
X128827510Y-92144517D01*
X128994517Y-91977510D01*
X128999682Y-91970401D01*
X129055012Y-91927735D01*
X129124625Y-91921756D01*
X129186420Y-91954362D01*
X129200318Y-91970401D01*
X129202957Y-91974034D01*
X129205483Y-91977510D01*
X129372490Y-92144517D01*
X129563567Y-92283343D01*
X129597238Y-92300499D01*
X129774003Y-92390566D01*
X129774005Y-92390566D01*
X129774008Y-92390568D01*
X129894412Y-92429689D01*
X129998631Y-92463553D01*
X130231903Y-92500500D01*
X130231908Y-92500500D01*
X130468097Y-92500500D01*
X130701368Y-92463553D01*
X130732569Y-92453415D01*
X130925992Y-92390568D01*
X131136433Y-92283343D01*
X131327510Y-92144517D01*
X131494517Y-91977510D01*
X131633343Y-91786433D01*
X131740568Y-91575992D01*
X131813553Y-91351368D01*
X131819898Y-91311309D01*
X131840816Y-91179240D01*
X131850500Y-91118097D01*
X131850500Y-90881902D01*
X131813553Y-90648631D01*
X131768602Y-90510288D01*
X131740568Y-90424008D01*
X131740566Y-90424005D01*
X131740566Y-90424003D01*
X131670291Y-90286082D01*
X131633343Y-90213567D01*
X131494517Y-90022490D01*
X131327510Y-89855483D01*
X131136433Y-89716657D01*
X131125927Y-89711304D01*
X130925996Y-89609433D01*
X130798265Y-89567931D01*
X130740590Y-89528493D01*
X130713392Y-89464134D01*
X130725307Y-89395288D01*
X130772551Y-89343812D01*
X130798265Y-89332069D01*
X130925992Y-89290568D01*
X131136433Y-89183343D01*
X131327510Y-89044517D01*
X131494517Y-88877510D01*
X131633343Y-88686433D01*
X131740568Y-88475992D01*
X131813553Y-88251368D01*
X131839015Y-88090609D01*
X131840816Y-88079240D01*
X131850500Y-88018097D01*
X131850500Y-87781902D01*
X131813553Y-87548631D01*
X131740566Y-87324003D01*
X131633342Y-87113566D01*
X131494517Y-86922490D01*
X131424182Y-86852155D01*
X135850000Y-86852155D01*
X135850000Y-87650000D01*
X136801518Y-87650000D01*
X136790889Y-87668409D01*
X136750000Y-87821009D01*
X136750000Y-87978991D01*
X136790889Y-88131591D01*
X136801518Y-88150000D01*
X135850000Y-88150000D01*
X135850000Y-88947844D01*
X135856401Y-89007372D01*
X135856403Y-89007379D01*
X135906645Y-89142086D01*
X135906649Y-89142093D01*
X135992809Y-89257187D01*
X135992812Y-89257190D01*
X136107906Y-89343350D01*
X136107913Y-89343354D01*
X136202710Y-89378711D01*
X136258644Y-89420582D01*
X136283061Y-89486046D01*
X136268210Y-89554319D01*
X136224474Y-89600431D01*
X136131659Y-89657680D01*
X136131655Y-89657683D01*
X136007684Y-89781654D01*
X135915643Y-89930875D01*
X135915641Y-89930880D01*
X135860494Y-90097302D01*
X135860493Y-90097309D01*
X135850000Y-90200013D01*
X135850000Y-90750000D01*
X136801518Y-90750000D01*
X136790889Y-90768409D01*
X136750000Y-90921009D01*
X136750000Y-91078991D01*
X136790889Y-91231591D01*
X136801518Y-91250000D01*
X135850001Y-91250000D01*
X135850001Y-91799986D01*
X135860494Y-91902697D01*
X135915641Y-92069119D01*
X135915643Y-92069124D01*
X136007684Y-92218345D01*
X136131654Y-92342315D01*
X136280875Y-92434356D01*
X136280880Y-92434358D01*
X136447302Y-92489505D01*
X136447309Y-92489506D01*
X136550019Y-92499999D01*
X137099999Y-92499999D01*
X137100000Y-92499998D01*
X137100000Y-91548482D01*
X137118409Y-91559111D01*
X137271009Y-91600000D01*
X137428991Y-91600000D01*
X137581591Y-91559111D01*
X137600000Y-91548482D01*
X137600000Y-92499999D01*
X138149972Y-92499999D01*
X138149986Y-92499998D01*
X138252697Y-92489505D01*
X138419119Y-92434358D01*
X138419124Y-92434356D01*
X138568345Y-92342315D01*
X138692317Y-92218343D01*
X138709301Y-92190808D01*
X138761248Y-92144083D01*
X138830211Y-92132860D01*
X138887724Y-92155585D01*
X139063567Y-92283343D01*
X139097238Y-92300499D01*
X139274003Y-92390566D01*
X139274005Y-92390566D01*
X139274008Y-92390568D01*
X139394412Y-92429689D01*
X139498631Y-92463553D01*
X139731903Y-92500500D01*
X139731908Y-92500500D01*
X139968097Y-92500500D01*
X140201368Y-92463553D01*
X140232569Y-92453415D01*
X140425992Y-92390568D01*
X140636433Y-92283343D01*
X140827510Y-92144517D01*
X140994517Y-91977510D01*
X140999682Y-91970401D01*
X141055012Y-91927735D01*
X141124625Y-91921756D01*
X141186420Y-91954362D01*
X141200318Y-91970401D01*
X141202957Y-91974034D01*
X141205483Y-91977510D01*
X141372490Y-92144517D01*
X141563567Y-92283343D01*
X141597238Y-92300499D01*
X141774003Y-92390566D01*
X141774005Y-92390566D01*
X141774008Y-92390568D01*
X141894412Y-92429689D01*
X141998631Y-92463553D01*
X142231903Y-92500500D01*
X142231908Y-92500500D01*
X142468097Y-92500500D01*
X142701368Y-92463553D01*
X142732569Y-92453415D01*
X142925992Y-92390568D01*
X143136433Y-92283343D01*
X143327510Y-92144517D01*
X143494517Y-91977510D01*
X143633343Y-91786433D01*
X143740568Y-91575992D01*
X143813553Y-91351368D01*
X143819898Y-91311309D01*
X143850500Y-91118097D01*
X143850500Y-90881902D01*
X143813553Y-90648631D01*
X143768602Y-90510288D01*
X143740568Y-90424008D01*
X143740566Y-90424005D01*
X143740566Y-90424003D01*
X143670291Y-90286082D01*
X143633343Y-90213567D01*
X143494517Y-90022490D01*
X143327510Y-89855483D01*
X143136433Y-89716657D01*
X143125927Y-89711304D01*
X142925996Y-89609433D01*
X142798265Y-89567931D01*
X142740590Y-89528493D01*
X142713392Y-89464134D01*
X142725307Y-89395288D01*
X142772551Y-89343812D01*
X142798265Y-89332069D01*
X142925992Y-89290568D01*
X143136433Y-89183343D01*
X143327510Y-89044517D01*
X143494517Y-88877510D01*
X143633343Y-88686433D01*
X143740568Y-88475992D01*
X143813553Y-88251368D01*
X143839015Y-88090609D01*
X143850500Y-88018097D01*
X143850500Y-87781902D01*
X143813553Y-87548631D01*
X143740566Y-87324003D01*
X143633342Y-87113566D01*
X143494517Y-86922490D01*
X143327510Y-86755483D01*
X143136433Y-86616657D01*
X142925996Y-86509433D01*
X142701368Y-86436446D01*
X142468097Y-86399500D01*
X142468092Y-86399500D01*
X142231908Y-86399500D01*
X142231903Y-86399500D01*
X141998631Y-86436446D01*
X141774003Y-86509433D01*
X141563566Y-86616657D01*
X141467438Y-86686499D01*
X141372490Y-86755483D01*
X141372488Y-86755485D01*
X141372487Y-86755485D01*
X141205482Y-86922490D01*
X141200315Y-86929603D01*
X141144983Y-86972266D01*
X141075370Y-86978242D01*
X141013576Y-86945634D01*
X140999685Y-86929603D01*
X140994517Y-86922490D01*
X140827512Y-86755485D01*
X140827510Y-86755483D01*
X140636433Y-86616657D01*
X140425996Y-86509433D01*
X140201368Y-86436446D01*
X139968097Y-86399500D01*
X139968092Y-86399500D01*
X139731908Y-86399500D01*
X139731903Y-86399500D01*
X139498631Y-86436446D01*
X139274003Y-86509433D01*
X139063564Y-86616658D01*
X138967435Y-86686499D01*
X138901629Y-86709978D01*
X138833575Y-86694152D01*
X138795285Y-86660491D01*
X138707190Y-86542812D01*
X138707187Y-86542809D01*
X138592093Y-86456649D01*
X138592086Y-86456645D01*
X138457379Y-86406403D01*
X138457372Y-86406401D01*
X138397844Y-86400000D01*
X137600000Y-86400000D01*
X137600000Y-87351517D01*
X137581591Y-87340889D01*
X137428991Y-87300000D01*
X137271009Y-87300000D01*
X137118409Y-87340889D01*
X137100000Y-87351517D01*
X137100000Y-86400000D01*
X136302155Y-86400000D01*
X136242627Y-86406401D01*
X136242620Y-86406403D01*
X136107913Y-86456645D01*
X136107906Y-86456649D01*
X135992812Y-86542809D01*
X135992809Y-86542812D01*
X135906649Y-86657906D01*
X135906645Y-86657913D01*
X135856403Y-86792620D01*
X135856401Y-86792627D01*
X135850000Y-86852155D01*
X131424182Y-86852155D01*
X131327510Y-86755483D01*
X131136433Y-86616657D01*
X130925996Y-86509433D01*
X130701368Y-86436446D01*
X130468097Y-86399500D01*
X130468092Y-86399500D01*
X130231908Y-86399500D01*
X130231903Y-86399500D01*
X129998631Y-86436446D01*
X129774003Y-86509433D01*
X129563566Y-86616657D01*
X129467438Y-86686499D01*
X129372490Y-86755483D01*
X129372488Y-86755485D01*
X129372487Y-86755485D01*
X129205482Y-86922490D01*
X129200315Y-86929603D01*
X129144983Y-86972266D01*
X129075370Y-86978242D01*
X129013576Y-86945634D01*
X128999685Y-86929603D01*
X128994517Y-86922490D01*
X128827512Y-86755485D01*
X128827510Y-86755483D01*
X128636433Y-86616657D01*
X128425996Y-86509433D01*
X128201368Y-86436446D01*
X127968097Y-86399500D01*
X127968092Y-86399500D01*
X127731908Y-86399500D01*
X127731903Y-86399500D01*
X127498631Y-86436446D01*
X127274003Y-86509433D01*
X127063564Y-86616658D01*
X126967435Y-86686499D01*
X126901629Y-86709978D01*
X126833575Y-86694152D01*
X126795285Y-86660491D01*
X126707190Y-86542812D01*
X126707187Y-86542809D01*
X126592093Y-86456649D01*
X126592086Y-86456645D01*
X126457379Y-86406403D01*
X126457372Y-86406401D01*
X126397844Y-86400000D01*
X125600000Y-86400000D01*
X125600000Y-87351517D01*
X125581591Y-87340889D01*
X125428991Y-87300000D01*
X125271009Y-87300000D01*
X125118409Y-87340889D01*
X125100000Y-87351517D01*
X125100000Y-86400000D01*
X124302155Y-86400000D01*
X124242627Y-86406401D01*
X124242620Y-86406403D01*
X124107913Y-86456645D01*
X124107906Y-86456649D01*
X123992812Y-86542809D01*
X123992809Y-86542812D01*
X123906649Y-86657906D01*
X123906645Y-86657913D01*
X123856403Y-86792620D01*
X123856401Y-86792627D01*
X123850000Y-86852155D01*
X62500500Y-86852155D01*
X62500500Y-86202577D01*
X75625975Y-86202577D01*
X75731236Y-86246178D01*
X75731240Y-86246179D01*
X75876126Y-86274999D01*
X75876129Y-86275000D01*
X76023871Y-86275000D01*
X76023873Y-86274999D01*
X76168760Y-86246179D01*
X76168775Y-86246175D01*
X76274024Y-86202578D01*
X76274024Y-86202577D01*
X75950001Y-85878554D01*
X75950000Y-85878554D01*
X75625975Y-86202577D01*
X62500500Y-86202577D01*
X62500500Y-85451126D01*
X75200000Y-85451126D01*
X75200000Y-85598873D01*
X75228820Y-85743759D01*
X75228822Y-85743767D01*
X75272421Y-85849024D01*
X75596446Y-85525000D01*
X75596446Y-85524999D01*
X75576556Y-85505109D01*
X75850000Y-85505109D01*
X75850000Y-85544891D01*
X75865224Y-85581645D01*
X75893355Y-85609776D01*
X75930109Y-85625000D01*
X75969891Y-85625000D01*
X76006645Y-85609776D01*
X76034776Y-85581645D01*
X76050000Y-85544891D01*
X76050000Y-85524999D01*
X76303554Y-85524999D01*
X76303554Y-85525001D01*
X76627577Y-85849024D01*
X76627578Y-85849024D01*
X76671175Y-85743775D01*
X76671179Y-85743760D01*
X76699999Y-85598873D01*
X76700000Y-85598871D01*
X76700000Y-85451128D01*
X76699999Y-85451126D01*
X76671179Y-85306240D01*
X76671178Y-85306236D01*
X76627577Y-85200975D01*
X76303554Y-85524999D01*
X76050000Y-85524999D01*
X76050000Y-85505109D01*
X76034776Y-85468355D01*
X76006645Y-85440224D01*
X75969891Y-85425000D01*
X75930109Y-85425000D01*
X75893355Y-85440224D01*
X75865224Y-85468355D01*
X75850000Y-85505109D01*
X75576556Y-85505109D01*
X75272421Y-85200974D01*
X75272420Y-85200974D01*
X75228823Y-85306228D01*
X75228820Y-85306240D01*
X75200000Y-85451126D01*
X62500500Y-85451126D01*
X62500500Y-83411304D01*
X67349500Y-83411304D01*
X67349500Y-83588695D01*
X67384103Y-83762658D01*
X67384106Y-83762667D01*
X67451983Y-83926540D01*
X67451990Y-83926553D01*
X67550534Y-84074033D01*
X67550535Y-84074034D01*
X67550536Y-84074035D01*
X67563180Y-84086679D01*
X67596665Y-84147999D01*
X67599500Y-84174361D01*
X67599500Y-84338695D01*
X67634103Y-84512658D01*
X67634106Y-84512667D01*
X67701983Y-84676540D01*
X67701990Y-84676553D01*
X67800535Y-84824034D01*
X67800538Y-84824038D01*
X67925961Y-84949461D01*
X67925965Y-84949464D01*
X68073446Y-85048009D01*
X68073459Y-85048016D01*
X68196363Y-85098923D01*
X68237334Y-85115894D01*
X68237336Y-85115894D01*
X68237341Y-85115896D01*
X68411304Y-85150499D01*
X68411307Y-85150500D01*
X68575638Y-85150500D01*
X68642677Y-85170185D01*
X68663319Y-85186819D01*
X68675961Y-85199461D01*
X68675965Y-85199464D01*
X68823446Y-85298009D01*
X68823459Y-85298016D01*
X68874999Y-85319364D01*
X68987334Y-85365894D01*
X68987336Y-85365894D01*
X68987341Y-85365896D01*
X69161304Y-85400499D01*
X69161307Y-85400500D01*
X69161309Y-85400500D01*
X69338693Y-85400500D01*
X69338694Y-85400499D01*
X69512666Y-85365894D01*
X69577548Y-85339018D01*
X69647016Y-85331550D01*
X69672448Y-85339017D01*
X69737334Y-85365894D01*
X69911304Y-85400499D01*
X69911307Y-85400500D01*
X69911309Y-85400500D01*
X70088693Y-85400500D01*
X70088694Y-85400499D01*
X70262666Y-85365894D01*
X70327548Y-85339018D01*
X70397016Y-85331550D01*
X70422448Y-85339017D01*
X70487334Y-85365894D01*
X70661304Y-85400499D01*
X70661307Y-85400500D01*
X70661309Y-85400500D01*
X70838693Y-85400500D01*
X70838694Y-85400499D01*
X70896682Y-85388964D01*
X71012658Y-85365896D01*
X71012661Y-85365894D01*
X71012666Y-85365894D01*
X71125001Y-85319364D01*
X71176541Y-85298016D01*
X71176544Y-85298014D01*
X71176547Y-85298013D01*
X71324035Y-85199464D01*
X71336680Y-85186819D01*
X71398003Y-85153334D01*
X71424361Y-85150500D01*
X71588693Y-85150500D01*
X71588694Y-85150499D01*
X71646682Y-85138964D01*
X71762658Y-85115896D01*
X71762661Y-85115894D01*
X71762666Y-85115894D01*
X71926547Y-85048013D01*
X72035818Y-84975000D01*
X75753554Y-84975000D01*
X75950000Y-85171446D01*
X76146446Y-84975000D01*
X75950000Y-84778554D01*
X75753554Y-84975000D01*
X72035818Y-84975000D01*
X72074035Y-84949464D01*
X72096959Y-84926540D01*
X72187543Y-84835957D01*
X72199461Y-84824038D01*
X72199464Y-84824035D01*
X72298013Y-84676547D01*
X72365894Y-84512666D01*
X72372065Y-84481645D01*
X72398027Y-84351126D01*
X75200000Y-84351126D01*
X75200000Y-84498873D01*
X75228820Y-84643759D01*
X75228822Y-84643767D01*
X75272421Y-84749024D01*
X75596446Y-84425000D01*
X75596446Y-84424999D01*
X75576556Y-84405109D01*
X75850000Y-84405109D01*
X75850000Y-84444891D01*
X75865224Y-84481645D01*
X75893355Y-84509776D01*
X75930109Y-84525000D01*
X75969891Y-84525000D01*
X76006645Y-84509776D01*
X76034776Y-84481645D01*
X76050000Y-84444891D01*
X76050000Y-84424999D01*
X76303554Y-84424999D01*
X76303554Y-84425001D01*
X76627577Y-84749024D01*
X76627578Y-84749024D01*
X76671175Y-84643775D01*
X76671179Y-84643760D01*
X76699999Y-84498873D01*
X76700000Y-84498871D01*
X76700000Y-84411304D01*
X90849500Y-84411304D01*
X90849500Y-84588695D01*
X90884103Y-84762658D01*
X90884106Y-84762667D01*
X90951983Y-84926540D01*
X90951990Y-84926553D01*
X90955037Y-84931113D01*
X90975912Y-84997792D01*
X90957425Y-85065171D01*
X90955037Y-85068887D01*
X90951990Y-85073446D01*
X90951983Y-85073459D01*
X90884106Y-85237332D01*
X90884103Y-85237341D01*
X90849500Y-85411304D01*
X90849500Y-85588695D01*
X90884103Y-85762658D01*
X90884106Y-85762667D01*
X90951983Y-85926540D01*
X90951990Y-85926553D01*
X91050535Y-86074034D01*
X91050538Y-86074038D01*
X91175961Y-86199461D01*
X91175965Y-86199464D01*
X91323446Y-86298009D01*
X91323459Y-86298016D01*
X91446363Y-86348923D01*
X91487334Y-86365894D01*
X91487336Y-86365894D01*
X91487341Y-86365896D01*
X91661304Y-86400499D01*
X91661307Y-86400500D01*
X91661309Y-86400500D01*
X91838693Y-86400500D01*
X91838694Y-86400499D01*
X91896682Y-86388964D01*
X92012658Y-86365896D01*
X92012661Y-86365894D01*
X92012666Y-86365894D01*
X92176547Y-86298013D01*
X92324035Y-86199464D01*
X92449464Y-86074035D01*
X92548013Y-85926547D01*
X92615894Y-85762666D01*
X92619654Y-85743767D01*
X92646306Y-85609776D01*
X92650500Y-85588691D01*
X92650500Y-85411309D01*
X92650500Y-85411306D01*
X92650499Y-85411304D01*
X92615896Y-85237341D01*
X92615893Y-85237332D01*
X92548015Y-85073457D01*
X92548014Y-85073455D01*
X92548013Y-85073453D01*
X92544965Y-85068892D01*
X92524086Y-85002217D01*
X92542569Y-84934837D01*
X92544962Y-84931113D01*
X92548013Y-84926547D01*
X92615894Y-84762666D01*
X92650500Y-84588691D01*
X92650500Y-84411309D01*
X92650500Y-84411306D01*
X92650499Y-84411304D01*
X92615896Y-84237341D01*
X92615893Y-84237332D01*
X92548016Y-84073459D01*
X92548009Y-84073446D01*
X92449464Y-83925965D01*
X92449461Y-83925961D01*
X92324038Y-83800538D01*
X92324034Y-83800535D01*
X92176553Y-83701990D01*
X92176540Y-83701983D01*
X92012667Y-83634106D01*
X92012658Y-83634103D01*
X91838694Y-83599500D01*
X91838691Y-83599500D01*
X91661309Y-83599500D01*
X91661306Y-83599500D01*
X91487341Y-83634103D01*
X91487332Y-83634106D01*
X91323459Y-83701983D01*
X91323446Y-83701990D01*
X91175965Y-83800535D01*
X91175961Y-83800538D01*
X91050538Y-83925961D01*
X91050535Y-83925965D01*
X90951990Y-84073446D01*
X90951983Y-84073459D01*
X90884106Y-84237332D01*
X90884103Y-84237341D01*
X90849500Y-84411304D01*
X76700000Y-84411304D01*
X76700000Y-84351128D01*
X76699999Y-84351126D01*
X76671179Y-84206240D01*
X76671178Y-84206236D01*
X76627577Y-84100975D01*
X76303554Y-84424999D01*
X76050000Y-84424999D01*
X76050000Y-84405109D01*
X76034776Y-84368355D01*
X76006645Y-84340224D01*
X75969891Y-84325000D01*
X75930109Y-84325000D01*
X75893355Y-84340224D01*
X75865224Y-84368355D01*
X75850000Y-84405109D01*
X75576556Y-84405109D01*
X75272421Y-84100974D01*
X75272420Y-84100974D01*
X75228823Y-84206228D01*
X75228820Y-84206240D01*
X75200000Y-84351126D01*
X72398027Y-84351126D01*
X72400499Y-84338696D01*
X72400500Y-84338692D01*
X72400500Y-84161306D01*
X72400499Y-84161304D01*
X72365896Y-83987341D01*
X72365893Y-83987332D01*
X72303081Y-83835688D01*
X72303080Y-83835686D01*
X72298014Y-83823456D01*
X72298013Y-83823453D01*
X72298011Y-83823450D01*
X72298009Y-83823446D01*
X72247209Y-83747420D01*
X75625974Y-83747420D01*
X75625974Y-83747421D01*
X75950000Y-84071446D01*
X75950001Y-84071446D01*
X76274024Y-83747421D01*
X76168767Y-83703822D01*
X76168759Y-83703820D01*
X76023872Y-83675000D01*
X75876128Y-83675000D01*
X75731240Y-83703820D01*
X75731228Y-83703823D01*
X75625974Y-83747420D01*
X72247209Y-83747420D01*
X72199464Y-83675965D01*
X72199461Y-83675961D01*
X72111181Y-83587681D01*
X72077696Y-83526358D01*
X72082680Y-83456666D01*
X72111181Y-83412319D01*
X72199461Y-83324038D01*
X72199464Y-83324035D01*
X72298013Y-83176547D01*
X72365894Y-83012666D01*
X72368315Y-83000499D01*
X72400499Y-82838695D01*
X72400500Y-82838693D01*
X72400500Y-82661306D01*
X72400499Y-82661304D01*
X72365896Y-82487341D01*
X72365893Y-82487332D01*
X72298016Y-82323459D01*
X72298014Y-82323455D01*
X72298013Y-82323453D01*
X72199464Y-82175965D01*
X72199463Y-82175964D01*
X72199461Y-82175961D01*
X72144653Y-82121153D01*
X128599500Y-82121153D01*
X128599500Y-82278846D01*
X128630261Y-82433489D01*
X128630264Y-82433501D01*
X128690602Y-82579172D01*
X128690609Y-82579185D01*
X128778210Y-82710288D01*
X128778213Y-82710292D01*
X128889707Y-82821786D01*
X128889711Y-82821789D01*
X129020814Y-82909390D01*
X129020827Y-82909397D01*
X129060834Y-82925968D01*
X129166503Y-82969737D01*
X129321153Y-83000499D01*
X129321156Y-83000500D01*
X129321158Y-83000500D01*
X129478844Y-83000500D01*
X129478845Y-83000499D01*
X129633497Y-82969737D01*
X129779179Y-82909394D01*
X129910289Y-82821789D01*
X130010925Y-82721153D01*
X138799500Y-82721153D01*
X138799500Y-82878846D01*
X138830261Y-83033489D01*
X138830264Y-83033501D01*
X138890602Y-83179172D01*
X138890609Y-83179185D01*
X138978210Y-83310288D01*
X138978213Y-83310292D01*
X139089707Y-83421786D01*
X139089711Y-83421789D01*
X139220814Y-83509390D01*
X139220827Y-83509397D01*
X139320147Y-83550536D01*
X139366503Y-83569737D01*
X139508213Y-83597925D01*
X139521153Y-83600499D01*
X139521156Y-83600500D01*
X139521158Y-83600500D01*
X139678844Y-83600500D01*
X139678845Y-83600499D01*
X139833497Y-83569737D01*
X139979179Y-83509394D01*
X140110289Y-83421789D01*
X140221789Y-83310289D01*
X140309394Y-83179179D01*
X140369737Y-83033497D01*
X140400500Y-82878842D01*
X140400500Y-82721158D01*
X140400500Y-82721155D01*
X140400499Y-82721153D01*
X140388595Y-82661309D01*
X140369737Y-82566503D01*
X140369735Y-82566498D01*
X140309397Y-82420827D01*
X140309390Y-82420814D01*
X140221789Y-82289711D01*
X140221786Y-82289707D01*
X140110292Y-82178213D01*
X140110288Y-82178210D01*
X139979185Y-82090609D01*
X139979172Y-82090602D01*
X139833501Y-82030264D01*
X139833489Y-82030261D01*
X139678845Y-81999500D01*
X139678842Y-81999500D01*
X139521158Y-81999500D01*
X139521155Y-81999500D01*
X139366510Y-82030261D01*
X139366498Y-82030264D01*
X139220827Y-82090602D01*
X139220814Y-82090609D01*
X139089711Y-82178210D01*
X139089707Y-82178213D01*
X138978213Y-82289707D01*
X138978210Y-82289711D01*
X138890609Y-82420814D01*
X138890602Y-82420827D01*
X138830264Y-82566498D01*
X138830261Y-82566510D01*
X138799500Y-82721153D01*
X130010925Y-82721153D01*
X130021789Y-82710289D01*
X130049999Y-82668068D01*
X130064629Y-82646175D01*
X130109390Y-82579185D01*
X130109390Y-82579184D01*
X130109394Y-82579179D01*
X130169737Y-82433497D01*
X130200500Y-82278842D01*
X130200500Y-82121158D01*
X130200500Y-82121155D01*
X130200499Y-82121153D01*
X130182419Y-82030261D01*
X130169737Y-81966503D01*
X130163723Y-81951983D01*
X130109397Y-81820827D01*
X130109390Y-81820814D01*
X130021789Y-81689711D01*
X130021786Y-81689707D01*
X129910292Y-81578213D01*
X129910288Y-81578210D01*
X129779185Y-81490609D01*
X129779172Y-81490602D01*
X129633501Y-81430264D01*
X129633489Y-81430261D01*
X129478845Y-81399500D01*
X129478842Y-81399500D01*
X129321158Y-81399500D01*
X129321155Y-81399500D01*
X129166510Y-81430261D01*
X129166498Y-81430264D01*
X129020827Y-81490602D01*
X129020814Y-81490609D01*
X128889711Y-81578210D01*
X128889707Y-81578213D01*
X128778213Y-81689707D01*
X128778210Y-81689711D01*
X128690609Y-81820814D01*
X128690602Y-81820827D01*
X128630264Y-81966498D01*
X128630261Y-81966510D01*
X128599500Y-82121153D01*
X72144653Y-82121153D01*
X72074038Y-82050538D01*
X72074034Y-82050535D01*
X71926553Y-81951990D01*
X71926540Y-81951983D01*
X71762667Y-81884106D01*
X71762658Y-81884103D01*
X71588694Y-81849500D01*
X71588691Y-81849500D01*
X71424362Y-81849500D01*
X71357323Y-81829815D01*
X71336681Y-81813181D01*
X71324038Y-81800538D01*
X71324034Y-81800535D01*
X71176553Y-81701990D01*
X71176540Y-81701983D01*
X71012667Y-81634106D01*
X71012658Y-81634103D01*
X70838694Y-81599500D01*
X70838691Y-81599500D01*
X70661309Y-81599500D01*
X70661306Y-81599500D01*
X70487336Y-81634104D01*
X70487333Y-81634106D01*
X70422451Y-81660980D01*
X70352982Y-81668447D01*
X70327549Y-81660980D01*
X70262666Y-81634106D01*
X70262663Y-81634104D01*
X70088694Y-81599500D01*
X70088691Y-81599500D01*
X69911309Y-81599500D01*
X69911306Y-81599500D01*
X69737336Y-81634104D01*
X69737333Y-81634106D01*
X69672451Y-81660980D01*
X69602982Y-81668447D01*
X69577549Y-81660980D01*
X69512666Y-81634106D01*
X69512663Y-81634104D01*
X69338694Y-81599500D01*
X69338691Y-81599500D01*
X69161309Y-81599500D01*
X69161306Y-81599500D01*
X68987341Y-81634103D01*
X68987332Y-81634106D01*
X68823459Y-81701983D01*
X68823446Y-81701990D01*
X68675968Y-81800533D01*
X68675963Y-81800537D01*
X68663320Y-81813181D01*
X68601997Y-81846666D01*
X68575639Y-81849500D01*
X68411306Y-81849500D01*
X68237341Y-81884103D01*
X68237332Y-81884106D01*
X68073459Y-81951983D01*
X68073446Y-81951990D01*
X67925965Y-82050535D01*
X67925961Y-82050538D01*
X67800538Y-82175961D01*
X67800535Y-82175965D01*
X67701990Y-82323446D01*
X67701983Y-82323459D01*
X67634106Y-82487332D01*
X67634103Y-82487341D01*
X67599500Y-82661304D01*
X67599500Y-82825638D01*
X67579815Y-82892677D01*
X67563184Y-82913317D01*
X67550533Y-82925968D01*
X67451990Y-83073446D01*
X67451983Y-83073459D01*
X67384106Y-83237332D01*
X67384103Y-83237341D01*
X67349500Y-83411304D01*
X62500500Y-83411304D01*
X62500500Y-80124000D01*
X62520185Y-80056961D01*
X62572989Y-80011206D01*
X62624500Y-80000000D01*
X93000000Y-80000000D01*
X93000000Y-74610097D01*
X94102000Y-74610097D01*
X94102000Y-74869902D01*
X94142640Y-75126493D01*
X94222922Y-75373576D01*
X94304034Y-75532764D01*
X94340866Y-75605051D01*
X94493569Y-75815229D01*
X94677271Y-75998931D01*
X94887449Y-76151634D01*
X95034945Y-76226787D01*
X95118923Y-76269577D01*
X95118925Y-76269577D01*
X95118928Y-76269579D01*
X95366007Y-76349860D01*
X95498206Y-76370797D01*
X95622598Y-76390500D01*
X95622603Y-76390500D01*
X95882402Y-76390500D01*
X95995798Y-76372539D01*
X96138993Y-76349860D01*
X96386072Y-76269579D01*
X96617551Y-76151634D01*
X96827729Y-75998931D01*
X97011431Y-75815229D01*
X97164134Y-75605051D01*
X97282079Y-75373572D01*
X97362360Y-75126493D01*
X97400343Y-74886675D01*
X97403000Y-74869902D01*
X97403000Y-74610142D01*
X111882500Y-74610142D01*
X111882500Y-74869857D01*
X111923129Y-75126377D01*
X112003383Y-75373377D01*
X112121296Y-75604791D01*
X112202451Y-75716492D01*
X112202452Y-75716493D01*
X113152500Y-74766445D01*
X113152500Y-74790028D01*
X113178396Y-74886675D01*
X113228424Y-74973325D01*
X113299175Y-75044076D01*
X113385825Y-75094104D01*
X113482472Y-75120000D01*
X113506054Y-75120000D01*
X112556005Y-76070046D01*
X112556006Y-76070048D01*
X112667708Y-76151203D01*
X112899122Y-76269116D01*
X113146122Y-76349370D01*
X113402643Y-76390000D01*
X113662357Y-76390000D01*
X113918877Y-76349370D01*
X114165877Y-76269116D01*
X114397288Y-76151205D01*
X114508992Y-76070046D01*
X114508993Y-76070046D01*
X113558946Y-75120000D01*
X113582528Y-75120000D01*
X113679175Y-75094104D01*
X113765825Y-75044076D01*
X113836576Y-74973325D01*
X113886604Y-74886675D01*
X113912500Y-74790028D01*
X113912500Y-74766446D01*
X114862546Y-75716493D01*
X114862546Y-75716492D01*
X114943705Y-75604788D01*
X115061616Y-75373377D01*
X115141870Y-75126377D01*
X115182500Y-74869857D01*
X115182500Y-74610142D01*
X115141870Y-74353622D01*
X115061616Y-74106622D01*
X114943703Y-73875208D01*
X114862548Y-73763506D01*
X114862546Y-73763505D01*
X113912500Y-74713552D01*
X113912500Y-74689972D01*
X113886604Y-74593325D01*
X113836576Y-74506675D01*
X113765825Y-74435924D01*
X113679175Y-74385896D01*
X113582528Y-74360000D01*
X113558947Y-74360000D01*
X114508993Y-73409952D01*
X114508992Y-73409951D01*
X114397291Y-73328796D01*
X114165877Y-73210883D01*
X113918877Y-73130629D01*
X113662357Y-73090000D01*
X113402643Y-73090000D01*
X113146122Y-73130629D01*
X112899122Y-73210883D01*
X112667715Y-73328792D01*
X112556006Y-73409952D01*
X113506054Y-74360000D01*
X113482472Y-74360000D01*
X113385825Y-74385896D01*
X113299175Y-74435924D01*
X113228424Y-74506675D01*
X113178396Y-74593325D01*
X113152500Y-74689972D01*
X113152500Y-74713554D01*
X112202452Y-73763506D01*
X112121292Y-73875215D01*
X112003383Y-74106622D01*
X111923129Y-74353622D01*
X111882500Y-74610142D01*
X97403000Y-74610142D01*
X97403000Y-74610097D01*
X97375413Y-74435924D01*
X97362360Y-74353507D01*
X97282079Y-74106428D01*
X97282077Y-74106425D01*
X97282077Y-74106423D01*
X97239287Y-74022445D01*
X97164134Y-73874949D01*
X97011431Y-73664771D01*
X96827729Y-73481069D01*
X96618143Y-73328796D01*
X96617554Y-73328368D01*
X96617553Y-73328367D01*
X96617551Y-73328366D01*
X96545264Y-73291534D01*
X96386076Y-73210422D01*
X96138993Y-73130140D01*
X95882402Y-73089500D01*
X95882397Y-73089500D01*
X95622603Y-73089500D01*
X95622598Y-73089500D01*
X95366006Y-73130140D01*
X95118923Y-73210422D01*
X94887445Y-73328368D01*
X94677274Y-73481066D01*
X94677268Y-73481071D01*
X94493571Y-73664768D01*
X94493566Y-73664774D01*
X94340868Y-73874945D01*
X94222922Y-74106423D01*
X94142640Y-74353506D01*
X94102000Y-74610097D01*
X93000000Y-74610097D01*
X93000000Y-69530097D01*
X111882000Y-69530097D01*
X111882000Y-69789902D01*
X111922640Y-70046493D01*
X112002922Y-70293576D01*
X112084034Y-70452764D01*
X112120866Y-70525051D01*
X112273569Y-70735229D01*
X112457271Y-70918931D01*
X112667449Y-71071634D01*
X112814945Y-71146787D01*
X112898923Y-71189577D01*
X112898925Y-71189577D01*
X112898928Y-71189579D01*
X113146007Y-71269860D01*
X113278206Y-71290797D01*
X113402598Y-71310500D01*
X113402603Y-71310500D01*
X113662402Y-71310500D01*
X113775798Y-71292539D01*
X113918993Y-71269860D01*
X114166072Y-71189579D01*
X114397551Y-71071634D01*
X114607729Y-70918931D01*
X114791431Y-70735229D01*
X114944134Y-70525051D01*
X115062079Y-70293572D01*
X115142360Y-70046493D01*
X115165039Y-69903298D01*
X115183000Y-69789902D01*
X115183000Y-69530097D01*
X115161447Y-69394021D01*
X115142360Y-69273507D01*
X115062079Y-69026428D01*
X115062077Y-69026425D01*
X115062077Y-69026423D01*
X115019287Y-68942445D01*
X114944134Y-68794949D01*
X114791431Y-68584771D01*
X114607729Y-68401069D01*
X114397551Y-68248366D01*
X114325264Y-68211534D01*
X114166076Y-68130422D01*
X113918993Y-68050140D01*
X113662402Y-68009500D01*
X113662397Y-68009500D01*
X113402603Y-68009500D01*
X113402598Y-68009500D01*
X113146006Y-68050140D01*
X112898923Y-68130422D01*
X112667445Y-68248368D01*
X112457274Y-68401066D01*
X112457268Y-68401071D01*
X112273571Y-68584768D01*
X112273566Y-68584774D01*
X112120868Y-68794945D01*
X112002922Y-69026423D01*
X111922640Y-69273506D01*
X111882000Y-69530097D01*
X93000000Y-69530097D01*
X93000000Y-67124000D01*
X93019685Y-67056961D01*
X93072489Y-67011206D01*
X93124000Y-67000000D01*
X116376000Y-67000000D01*
X116443039Y-67019685D01*
G37*
%TD.AperFunction*%
%TA.AperFunction,Conductor*%
G36*
X149600000Y-101451517D02*
G01*
X149581591Y-101440889D01*
X149428991Y-101400000D01*
X149271009Y-101400000D01*
X149118409Y-101440889D01*
X149100000Y-101451517D01*
X149100000Y-99448482D01*
X149118409Y-99459111D01*
X149271009Y-99500000D01*
X149428991Y-99500000D01*
X149581591Y-99459111D01*
X149600000Y-99448482D01*
X149600000Y-101451517D01*
G37*
%TD.AperFunction*%
%TD*%
M02*
